<svg version="1.1"
	 xmlns="http://www.w3.org/2000/svg" xmlns:xlink="http://www.w3.org/1999/xlink" xmlns:a="http://ns.adobe.com/AdobeSVGViewerExtensions/3.0/"
	 x="0px" y="0px" width="204.2px" height="130px" viewBox="0 0 204.2 130" style="enable-background:new 0 0 204.2 130;"
	 xml:space="preserve">
<style type="text/css">
	.st0-behance-icon{fill:#FFFFFF;}
</style>
<defs>
</defs>
<g>
	<path class="st0-behance-icon" d="M75.1,125.1c5.5-1.1,10.3-3.3,14.3-6.4c3.6-2.7,6.6-6,9-10c3.8-6,5.6-12.7,5.6-20.2c0-7.3-1.6-13.5-4.9-18.6
		c-3.3-5.1-8.2-8.8-14.7-11.2c4.3-2.2,7.5-4.6,9.7-7.2c3.9-4.7,5.9-10.9,5.9-18.7c0-7.5-1.9-14-5.8-19.4C87.7,4.7,76.7,0.2,61.3,0H0
		v126.8h57.1C63.6,126.8,69.6,126.2,75.1,125.1z M25.3,22h27.6c6.1,0,11.1,0.7,15,2c4.5,1.9,6.8,5.8,6.8,11.7c0,5.3-1.7,9-5.2,11.1
		c-3.4,2.1-7.9,3.1-13.4,3.1H25.3V22z M25.3,104.8V71h31.2c5.5,0.1,9.7,0.8,12.7,2.1c5.4,2.5,8.1,7,8.1,13.6
		c0,7.8-2.8,13.1-8.3,15.8c-3.1,1.5-7.3,2.2-12.8,2.2H25.3z"/>
	<g>
		<path class="st0-behance-icon" d="M125.5,118.4c9.5,7.7,20.5,11.5,33,11.5c15.1,0,26.9-4.6,35.3-13.7c5.4-5.7,8.4-11.4,9.1-16.9h-25
			c-1.5,2.8-3.1,4.9-5,6.4c-3.5,2.9-8,4.3-13.6,4.3c-5.3,0-9.8-1.2-13.5-3.5c-6.2-3.8-9.4-10.4-9.8-19.8h68.3
			c0.1-8.1-0.1-14.3-0.8-18.6c-1.1-7.4-3.6-13.8-7.5-19.4c-4.3-6.3-9.7-10.9-16.2-13.9c-6.5-2.9-13.9-4.4-22-4.4
			c-13.7,0-24.9,4.3-33.5,13c-8.6,8.7-12.9,21.1-12.9,37.4C111.2,98.2,115.9,110.7,125.5,118.4z M143,56.1c3.5-3.6,8.3-5.4,14.6-5.4
			c5.8,0,10.6,1.7,14.5,5c3.9,3.4,6.1,8.3,6.5,14.8h-42.2C137.4,64.5,139.5,59.7,143,56.1z"/>
		<rect x="128.5" y="7.3" class="st0-behance-icon" width="55.1" height="12.8"/>
	</g>
</g>
</svg>
