<svg xmlns="http://www.w3.org/2000/svg" viewBox="0 0 204.17 129.98"><defs><style>.cls-1-behance-icon{fill:#fff;}</style></defs><title>behance-icon</title><g id="Capa_2" data-name="Capa 2"><g id="iCONS"><path class="cls-1-behance-icon" d="M75.06,125.07a34.92,34.92,0,0,0,23.3-16.33A37.18,37.18,0,0,0,104,88.51q0-10.92-4.93-18.58A28.29,28.29,0,0,0,84.42,58.75a30.47,30.47,0,0,0,9.68-7.23q5.85-7,5.87-18.66,0-11.26-5.83-19.36Q84.48.35,61.29,0H0V126.79H57.14A87.77,87.77,0,0,0,75.06,125.07ZM25.29,22H52.88a47.71,47.71,0,0,1,15,2q6.83,2.84,6.82,11.7c0,5.33-1.73,9-5.16,11.14S61.62,50,56.11,50H25.29Zm0,82.75V71H56.5q8.18.09,12.68,2.15,8.07,3.69,8.07,13.59,0,11.69-8.33,15.83c-3.06,1.49-7.35,2.23-12.84,2.23Z"/><path class="cls-1-behance-icon" d="M125.48,118.44a51.06,51.06,0,0,0,33,11.54q22.68,0,35.27-13.68,8.11-8.61,9.1-16.94h-25a20.53,20.53,0,0,1-5.05,6.44q-5.23,4.31-13.61,4.31a24.88,24.88,0,0,1-13.51-3.53q-9.24-5.68-9.81-19.79h68.29a120,120,0,0,0-.81-18.61,46.08,46.08,0,0,0-7.47-19.38,38.09,38.09,0,0,0-16.21-13.87,53.29,53.29,0,0,0-22-4.39q-20.6,0-33.52,13T111.17,80.9Q111.17,106.91,125.48,118.44ZM143,56.11q5.2-5.36,14.63-5.35a21.54,21.54,0,0,1,14.55,5q5.87,5.06,6.53,14.82H136.46Q137.79,61.47,143,56.11Z"/><rect class="cls-1-behance-icon" x="128.47" y="7.29" width="55.1" height="12.8"/></g></g></svg>