<svg x="0px" y="0px" width="100%" height="100%" viewBox="0 0 159.6 101.6" xml:space="preserve">
<g id="behance-icon_1_" class="svg-white">
	<path d="M58.7,97.8c4.3-0.9,8-2.5,11.2-5c2.8-2.1,5.1-4.7,7-7.8c2.9-4.7,4.4-9.9,4.4-15.8c0-5.7-1.3-10.5-3.9-14.5
		c-2.6-4-6.4-6.9-11.5-8.7c3.3-1.7,5.8-3.6,7.6-5.6c3.1-3.7,4.6-8.5,4.6-14.6c0-5.9-1.5-10.9-4.6-15.1C68.5,3.7,60,0.2,47.9,0H0
		v99.1h44.7C49.7,99.1,54.4,98.7,58.7,97.8z M19.8,17.2h21.6c4.7,0,8.6,0.5,11.7,1.5c3.6,1.5,5.3,4.5,5.3,9.1c0,4.2-1.3,7.1-4,8.7
		c-2.7,1.6-6.2,2.5-10.5,2.5H19.8V17.2z M19.8,81.9V55.5h24.4c4.3,0,7.6,0.6,9.9,1.7c4.2,1.9,6.3,5.5,6.3,10.6
		c0,6.1-2.2,10.2-6.5,12.4c-2.4,1.2-5.7,1.7-10,1.7H19.8z"/>
	<path d="M98.1,92.6c7.5,6,16.1,9,25.8,9c11.8,0,21-3.6,27.6-10.7c4.2-4.5,6.6-8.9,7.1-13.2H139c-1.1,2.1-2.5,3.8-3.9,5
		c-2.7,2.2-6.3,3.4-10.6,3.4c-4.1,0-7.6-0.9-10.6-2.8c-4.8-3-7.4-8.1-7.7-15.5h53.4c0.1-6.3-0.1-11.2-0.6-14.5
		c-0.9-5.7-2.8-10.8-5.8-15.1c-3.3-4.9-7.5-8.6-12.7-10.8c-5.1-2.3-10.8-3.4-17.2-3.4c-10.7,0-19.5,3.4-26.2,10.2
		c-6.7,6.8-10.1,16.5-10.1,29.2C86.9,76.8,90.6,86.6,98.1,92.6z M111.8,43.9c2.7-2.8,6.5-4.2,11.4-4.2c4.5,0,8.3,1.3,11.4,3.9
		c3.1,2.6,4.8,6.5,5.1,11.6h-33C107.4,50.4,109.1,46.7,111.8,43.9z"/>
	<rect x="100.4" y="5.7" width="43.1" height="10"/>
</g>
</svg>
