<svg xmlns="http://www.w3.org/2000/svg" viewBox="0 0 60.996 17.612">
  <defs>
    <style>
      .cls-1 {
        fill: #fcd116;
      }

      .cls-2 {
        fill: #003893;
      }

      .cls-3 {
        fill: #ce1126;
      }

      .cls-4 {
        fill: #fff;
      }
    </style>
  </defs>
  <g id="Flags-Spanish" transform="translate(-1255.004 -700.388)">
    <g id="Colombia_1_" transform="translate(51.776)">
      <rect id="Rectangle_5" data-name="Rectangle 5" class="cls-1" width="26.418" height="9.229" transform="translate(1203.228 700.388)"/>
      <rect id="Rectangle_6" data-name="Rectangle 6" class="cls-2" width="26.418" height="4.192" transform="translate(1203.228 709.617)"/>
      <rect id="Rectangle_7" data-name="Rectangle 7" class="cls-3" width="26.418" height="4.192" transform="translate(1203.228 713.808)"/>
    </g>
    <g id="EU_1_" transform="translate(55.046 -0.06)">
      <rect id="Rectangle_8" data-name="Rectangle 8" class="cls-3" width="23.996" height="1.12" transform="translate(1236.958 716.88)"/>
      <rect id="Rectangle_9" data-name="Rectangle 9" class="cls-3" width="23.996" height="1.12" transform="translate(1236.958 714.638)"/>
      <rect id="Rectangle_10" data-name="Rectangle 10" class="cls-3" width="23.996" height="1.12" transform="translate(1236.958 712.405)"/>
      <rect id="Rectangle_11" data-name="Rectangle 11" class="cls-3" width="23.996" height="1.12" transform="translate(1236.958 710.164)"/>
      <rect id="Rectangle_12" data-name="Rectangle 12" class="cls-3" width="23.996" height="1.12" transform="translate(1236.958 707.923)"/>
      <rect id="Rectangle_13" data-name="Rectangle 13" class="cls-3" width="23.996" height="1.12" transform="translate(1236.958 705.689)"/>
      <rect id="Rectangle_14" data-name="Rectangle 14" class="cls-3" width="23.996" height="1.12" transform="translate(1236.958 703.448)"/>
      <rect id="Rectangle_15" data-name="Rectangle 15" class="cls-4" width="23.996" height="1.12" transform="translate(1236.958 715.759)"/>
      <rect id="Rectangle_16" data-name="Rectangle 16" class="cls-4" width="23.996" height="1.12" transform="translate(1236.958 713.525)"/>
      <rect id="Rectangle_17" data-name="Rectangle 17" class="cls-4" width="23.996" height="1.12" transform="translate(1236.958 711.284)"/>
      <rect id="Rectangle_18" data-name="Rectangle 18" class="cls-4" width="23.996" height="1.12" transform="translate(1236.958 709.043)"/>
      <rect id="Rectangle_19" data-name="Rectangle 19" class="cls-4" width="23.996" height="1.12" transform="translate(1236.958 706.81)"/>
      <rect id="Rectangle_20" data-name="Rectangle 20" class="cls-4" width="23.996" height="1.12" transform="translate(1236.958 704.569)"/>
      <rect id="Rectangle_21" data-name="Rectangle 21" class="cls-2" width="9.823" height="7.836" transform="translate(1236.958 703.448)"/>
      <g id="Group_5" data-name="Group 5" transform="translate(1237.423 703.71)">
        <path id="Path_7" data-name="Path 7" class="cls-4" d="M367.007,3.6l.095.306h.313l-.247.2.095.306-.255-.189-.247.189.095-.306-.255-.2h.313Z" transform="translate(-366.6 -3.6)"/>
        <path id="Path_8" data-name="Path 8" class="cls-4" d="M378.207,14.7l.095.313h.313l-.255.189.095.313-.247-.189-.255.189.1-.313-.255-.189h.313Z" transform="translate(-376.985 -13.892)"/>
        <path id="Path_9" data-name="Path 9" class="cls-4" d="M367.007,25.9l.095.313h.313l-.247.189.095.313-.255-.2-.247.2.095-.313-.255-.189h.313Z" transform="translate(-366.6 -24.277)"/>
        <path id="Path_10" data-name="Path 10" class="cls-4" d="M378.207,37.1l.095.313h.313l-.255.189.095.313-.247-.2-.255.2.1-.313-.255-.189h.313Z" transform="translate(-376.985 -34.663)"/>
        <path id="Path_11" data-name="Path 11" class="cls-4" d="M367.007,48.3l.095.306h.313l-.247.2.095.306-.255-.189-.247.189.095-.306-.255-.2h.313Z" transform="translate(-366.6 -45.048)"/>
        <path id="Path_12" data-name="Path 12" class="cls-4" d="M367.007,70.6l.095.313h.313l-.247.189.095.313-.255-.2-.247.2.095-.313-.255-.189h.313Z" transform="translate(-366.6 -65.725)"/>
        <path id="Path_13" data-name="Path 13" class="cls-4" d="M367.007,93l.095.306h.313l-.247.2.095.306-.255-.189-.247.189.095-.306-.255-.2h.313Z" transform="translate(-366.6 -86.495)"/>
        <path id="Path_14" data-name="Path 14" class="cls-4" d="M389.407,93l.095.306h.306l-.247.2.095.306-.247-.189-.255.189.095-.306-.247-.2h.306Z" transform="translate(-387.37 -86.495)"/>
        <path id="Path_15" data-name="Path 15" class="cls-4" d="M411.707,93l.095.306h.313l-.255.2.1.306-.255-.189-.247.189.095-.306-.255-.2h.313Z" transform="translate(-408.048 -86.495)"/>
        <path id="Path_16" data-name="Path 16" class="cls-4" d="M434.107,93l.095.306h.306l-.247.2.095.306-.247-.189-.255.189.095-.306-.247-.2h.306Z" transform="translate(-428.818 -86.495)"/>
        <path id="Path_17" data-name="Path 17" class="cls-4" d="M456.407,93l.095.306h.313l-.255.2.1.306-.255-.189-.255.189.1-.306-.255-.2h.313Z" transform="translate(-449.495 -86.495)"/>
        <path id="Path_18" data-name="Path 18" class="cls-4" d="M478.8,93l.1.306h.306l-.247.2.095.306-.255-.189-.247.189.095-.306-.247-.2h.306Z" transform="translate(-470.265 -86.495)"/>
        <path id="Path_19" data-name="Path 19" class="cls-4" d="M389.407,70.6l.095.313h.306l-.247.189.095.313-.247-.2-.255.2.095-.313L389,70.913h.306Z" transform="translate(-387.37 -65.725)"/>
        <path id="Path_20" data-name="Path 20" class="cls-4" d="M411.707,70.6l.095.313h.313l-.255.189.1.313-.255-.2-.247.2.095-.313-.255-.189h.313Z" transform="translate(-408.048 -65.725)"/>
        <path id="Path_21" data-name="Path 21" class="cls-4" d="M434.107,70.6l.095.313h.306l-.247.189.095.313-.247-.2-.255.2.095-.313-.247-.189h.306Z" transform="translate(-428.818 -65.725)"/>
        <path id="Path_22" data-name="Path 22" class="cls-4" d="M456.407,70.6l.095.313h.313l-.255.189.1.313-.255-.2-.255.2.1-.313L456,70.913h.313Z" transform="translate(-449.495 -65.725)"/>
        <path id="Path_23" data-name="Path 23" class="cls-4" d="M478.8,70.6l.1.313h.306l-.247.189.095.313-.255-.2-.247.2.095-.313-.247-.189h.306Z" transform="translate(-470.265 -65.725)"/>
        <path id="Path_24" data-name="Path 24" class="cls-4" d="M378.207,59.4l.095.313h.313l-.255.189.095.313-.247-.189-.255.189.1-.313-.255-.189h.313Z" transform="translate(-376.985 -55.34)"/>
        <path id="Path_25" data-name="Path 25" class="cls-4" d="M378.207,81.8l.095.306h.313l-.255.2.095.313-.247-.2-.255.2.1-.313-.255-.2h.313Z" transform="translate(-376.985 -76.11)"/>
        <path id="Path_26" data-name="Path 26" class="cls-4" d="M400.507,81.8l.1.306h.306l-.247.2.095.313-.255-.2-.247.2.095-.313-.255-.2h.313Z" transform="translate(-397.663 -76.11)"/>
        <path id="Path_27" data-name="Path 27" class="cls-4" d="M422.907,81.8l.095.306h.313l-.255.2.095.313-.247-.2-.255.2.095-.313-.247-.2h.313Z" transform="translate(-418.433 -76.11)"/>
        <path id="Path_28" data-name="Path 28" class="cls-4" d="M445.207,81.8l.095.306h.313l-.247.2.095.313-.255-.2-.247.2.095-.313-.255-.2h.313Z" transform="translate(-439.11 -76.11)"/>
        <path id="Path_29" data-name="Path 29" class="cls-4" d="M467.607,81.8l.095.306h.313l-.255.2.095.313-.247-.2-.255.2.095-.313-.247-.2h.313Z" transform="translate(-459.88 -76.11)"/>
        <path id="Path_30" data-name="Path 30" class="cls-4" d="M400.507,59.4l.1.313h.306l-.247.189.095.313-.255-.189-.247.189.095-.313-.255-.189h.313Z" transform="translate(-397.663 -55.34)"/>
        <path id="Path_31" data-name="Path 31" class="cls-4" d="M422.907,59.4l.095.313h.313l-.255.189.095.313-.247-.189-.255.189.095-.313-.247-.189h.313Z" transform="translate(-418.433 -55.34)"/>
        <path id="Path_32" data-name="Path 32" class="cls-4" d="M445.207,59.4l.095.313h.313l-.247.189.095.313-.255-.189-.247.189.095-.313-.255-.189h.313Z" transform="translate(-439.11 -55.34)"/>
        <path id="Path_33" data-name="Path 33" class="cls-4" d="M467.607,59.4l.095.313h.313l-.255.189.095.313-.247-.189-.255.189.095-.313-.247-.189h.313Z" transform="translate(-459.88 -55.34)"/>
        <path id="Path_34" data-name="Path 34" class="cls-4" d="M389.407,48.3l.095.306h.306l-.247.2.095.306-.247-.189-.255.189.095-.306-.247-.2h.306Z" transform="translate(-387.37 -45.048)"/>
        <path id="Path_35" data-name="Path 35" class="cls-4" d="M411.707,48.3l.095.306h.313l-.255.2.1.306-.255-.189-.247.189.095-.306-.255-.2h.313Z" transform="translate(-408.048 -45.048)"/>
        <path id="Path_36" data-name="Path 36" class="cls-4" d="M434.107,48.3l.095.306h.306l-.247.2.095.306-.247-.189-.255.189.095-.306-.247-.2h.306Z" transform="translate(-428.818 -45.048)"/>
        <path id="Path_37" data-name="Path 37" class="cls-4" d="M456.407,48.3l.095.306h.313l-.255.2.1.306-.255-.189-.255.189.1-.306-.255-.2h.313Z" transform="translate(-449.495 -45.048)"/>
        <path id="Path_38" data-name="Path 38" class="cls-4" d="M478.8,48.3l.1.306h.306l-.247.2.095.306-.255-.189-.247.189.095-.306-.247-.2h.306Z" transform="translate(-470.265 -45.048)"/>
        <path id="Path_39" data-name="Path 39" class="cls-4" d="M400.507,37.1l.1.313h.306l-.247.189.095.313-.255-.2-.247.2.095-.313-.255-.189h.313Z" transform="translate(-397.663 -34.663)"/>
        <path id="Path_40" data-name="Path 40" class="cls-4" d="M422.907,37.1l.095.313h.313l-.255.189.095.313-.247-.2-.255.2.095-.313-.247-.189h.313Z" transform="translate(-418.433 -34.663)"/>
        <path id="Path_41" data-name="Path 41" class="cls-4" d="M445.207,37.1l.095.313h.313l-.247.189.095.313-.255-.2-.247.2.095-.313-.255-.189h.313Z" transform="translate(-439.11 -34.663)"/>
        <path id="Path_42" data-name="Path 42" class="cls-4" d="M467.607,37.1l.095.313h.313l-.255.189.095.313-.247-.2-.255.2.095-.313-.247-.189h.313Z" transform="translate(-459.88 -34.663)"/>
        <path id="Path_43" data-name="Path 43" class="cls-4" d="M389.407,25.9l.095.313h.306l-.247.189.095.313-.247-.2-.255.2.095-.313L389,26.213h.306Z" transform="translate(-387.37 -24.277)"/>
        <path id="Path_44" data-name="Path 44" class="cls-4" d="M411.707,25.9l.095.313h.313l-.255.189.1.313-.255-.2-.247.2.095-.313-.255-.189h.313Z" transform="translate(-408.048 -24.277)"/>
        <path id="Path_45" data-name="Path 45" class="cls-4" d="M434.107,25.9l.095.313h.306l-.247.189.095.313-.247-.2-.255.2.095-.313-.247-.189h.306Z" transform="translate(-428.818 -24.277)"/>
        <path id="Path_46" data-name="Path 46" class="cls-4" d="M456.407,25.9l.095.313h.313l-.255.189.1.313-.255-.2-.255.2.1-.313L456,26.213h.313Z" transform="translate(-449.495 -24.277)"/>
        <path id="Path_47" data-name="Path 47" class="cls-4" d="M478.8,25.9l.1.313h.306l-.247.189.095.313-.255-.2-.247.2.095-.313-.247-.189h.306Z" transform="translate(-470.265 -24.277)"/>
        <path id="Path_48" data-name="Path 48" class="cls-4" d="M389.407,3.6l.095.306h.306l-.247.2.095.306-.247-.189-.255.189.095-.306-.247-.2h.306Z" transform="translate(-387.37 -3.6)"/>
        <path id="Path_49" data-name="Path 49" class="cls-4" d="M400.507,14.7l.1.313h.306l-.247.189.095.313-.255-.189-.247.189.095-.313-.255-.189h.313Z" transform="translate(-397.663 -13.892)"/>
        <path id="Path_50" data-name="Path 50" class="cls-4" d="M411.707,3.6l.095.306h.313l-.255.2.1.306-.255-.189-.247.189.095-.306-.255-.2h.313Z" transform="translate(-408.048 -3.6)"/>
        <path id="Path_51" data-name="Path 51" class="cls-4" d="M422.907,14.7l.095.313h.313l-.255.189.095.313-.247-.189-.255.189.095-.313-.247-.189h.313Z" transform="translate(-418.433 -13.892)"/>
        <path id="Path_52" data-name="Path 52" class="cls-4" d="M434.107,3.6l.095.306h.306l-.247.2.095.306-.247-.189-.255.189.095-.306-.247-.2h.306Z" transform="translate(-428.818 -3.6)"/>
        <path id="Path_53" data-name="Path 53" class="cls-4" d="M445.207,14.7l.095.313h.313l-.247.189.095.313-.255-.189-.247.189.095-.313-.255-.189h.313Z" transform="translate(-439.11 -13.892)"/>
        <path id="Path_54" data-name="Path 54" class="cls-4" d="M456.407,3.6l.095.306h.313l-.255.2.1.306-.255-.189-.255.189.1-.306-.255-.2h.313Z" transform="translate(-449.495 -3.6)"/>
        <path id="Path_55" data-name="Path 55" class="cls-4" d="M467.607,14.7l.095.313h.313l-.255.189.095.313-.247-.189-.255.189.095-.313-.247-.189h.313Z" transform="translate(-459.88 -13.892)"/>
        <path id="Path_56" data-name="Path 56" class="cls-4" d="M478.8,3.6l.1.306h.306l-.247.2.095.306-.255-.189-.247.189.095-.306-.247-.2h.306Z" transform="translate(-470.265 -3.6)"/>
      </g>
    </g>
  </g>
</svg>
