<svg xmlns="http://www.w3.org/2000/svg" viewBox="0 0 61 17.644">
  <defs>
    <style>
      .cls-1 {
        fill: #ce1126;
      }

      .cls-2 {
        fill: #fff;
      }

      .cls-3 {
        fill: #003893;
      }

      .cls-4 {
        fill: #fcd116;
      }
    </style>
  </defs>
  <g id="Flags-English" transform="translate(-1255 -700.356)">
    <g id="EU_1_" transform="translate(-16.958)">
      <rect id="Rectangle_8" data-name="Rectangle 8" class="cls-1" width="29.095" height="1.359" transform="translate(1271.958 716.641)"/>
      <rect id="Rectangle_9" data-name="Rectangle 9" class="cls-1" width="29.095" height="1.359" transform="translate(1271.958 713.924)"/>
      <rect id="Rectangle_10" data-name="Rectangle 10" class="cls-1" width="29.095" height="1.359" transform="translate(1271.958 711.216)"/>
      <rect id="Rectangle_11" data-name="Rectangle 11" class="cls-1" width="29.095" height="1.359" transform="translate(1271.958 708.499)"/>
      <rect id="Rectangle_12" data-name="Rectangle 12" class="cls-1" width="29.095" height="1.359" transform="translate(1271.958 705.781)"/>
      <rect id="Rectangle_13" data-name="Rectangle 13" class="cls-1" width="29.095" height="1.359" transform="translate(1271.958 703.073)"/>
      <rect id="Rectangle_14" data-name="Rectangle 14" class="cls-1" width="29.095" height="1.359" transform="translate(1271.958 700.356)"/>
      <rect id="Rectangle_15" data-name="Rectangle 15" class="cls-2" width="29.095" height="1.359" transform="translate(1271.958 715.283)"/>
      <rect id="Rectangle_16" data-name="Rectangle 16" class="cls-2" width="29.095" height="1.359" transform="translate(1271.958 712.574)"/>
      <rect id="Rectangle_17" data-name="Rectangle 17" class="cls-2" width="29.095" height="1.359" transform="translate(1271.958 709.857)"/>
      <rect id="Rectangle_18" data-name="Rectangle 18" class="cls-2" width="29.095" height="1.359" transform="translate(1271.958 707.14)"/>
      <rect id="Rectangle_19" data-name="Rectangle 19" class="cls-2" width="29.095" height="1.359" transform="translate(1271.958 704.432)"/>
      <rect id="Rectangle_20" data-name="Rectangle 20" class="cls-2" width="29.095" height="1.359" transform="translate(1271.958 701.714)"/>
      <rect id="Rectangle_21" data-name="Rectangle 21" class="cls-3" width="11.91" height="9.501" transform="translate(1271.958 700.356)"/>
      <g id="Group_5" data-name="Group 5" transform="translate(1272.522 700.673)">
        <path id="Path_7" data-name="Path 7" class="cls-2" d="M367.094,3.6l.115.371h.379l-.3.238.115.371-.309-.229-.3.229.115-.371-.309-.238h.379Z" transform="translate(-366.6 -3.6)"/>
        <path id="Path_8" data-name="Path 8" class="cls-2" d="M378.294,14.7l.115.379h.379l-.309.229.115.379-.3-.229-.309.229.123-.379-.309-.229h.379Z" transform="translate(-376.812 -13.721)"/>
        <path id="Path_9" data-name="Path 9" class="cls-2" d="M367.094,25.9l.115.379h.379l-.3.229.115.379-.309-.238-.3.238.115-.379-.309-.229h.379Z" transform="translate(-366.6 -23.933)"/>
        <path id="Path_10" data-name="Path 10" class="cls-2" d="M378.294,37.1l.115.379h.379l-.309.229.115.379-.3-.238-.309.238.123-.379-.309-.229h.379Z" transform="translate(-376.812 -34.145)"/>
        <path id="Path_11" data-name="Path 11" class="cls-2" d="M367.094,48.3l.115.371h.379l-.3.238.115.371-.309-.229-.3.229.115-.371-.309-.238h.379Z" transform="translate(-366.6 -44.357)"/>
        <path id="Path_12" data-name="Path 12" class="cls-2" d="M367.094,70.6l.115.379h.379l-.3.229.115.379-.309-.238-.3.238.115-.379-.309-.229h.379Z" transform="translate(-366.6 -64.689)"/>
        <path id="Path_13" data-name="Path 13" class="cls-2" d="M367.094,93l.115.371h.379l-.3.238.115.371-.309-.229-.3.229.115-.371-.309-.238h.379Z" transform="translate(-366.6 -85.113)"/>
        <path id="Path_14" data-name="Path 14" class="cls-2" d="M389.494,93l.115.371h.371l-.3.238.115.371-.3-.229-.309.229.115-.371-.3-.238h.371Z" transform="translate(-387.024 -85.113)"/>
        <path id="Path_15" data-name="Path 15" class="cls-2" d="M411.794,93l.115.371h.379l-.309.238.124.371-.309-.229-.3.229.115-.371-.309-.238h.379Z" transform="translate(-407.356 -85.113)"/>
        <path id="Path_16" data-name="Path 16" class="cls-2" d="M434.194,93l.115.371h.37l-.3.238.115.371-.3-.229-.309.229.115-.371-.3-.238h.371Z" transform="translate(-427.78 -85.113)"/>
        <path id="Path_17" data-name="Path 17" class="cls-2" d="M456.494,93l.115.371h.379l-.309.238.124.371-.309-.229-.309.229.124-.371L456,93.371h.379Z" transform="translate(-448.113 -85.113)"/>
        <path id="Path_18" data-name="Path 18" class="cls-2" d="M478.885,93l.124.371h.37l-.3.238.115.371-.309-.229-.3.229.115-.371-.3-.238h.371Z" transform="translate(-468.537 -85.113)"/>
        <path id="Path_19" data-name="Path 19" class="cls-2" d="M389.494,70.6l.115.379h.371l-.3.229.115.379-.3-.238-.309.238.115-.379-.3-.229h.371Z" transform="translate(-387.024 -64.689)"/>
        <path id="Path_20" data-name="Path 20" class="cls-2" d="M411.794,70.6l.115.379h.379l-.309.229.124.379-.309-.238-.3.238.115-.379-.309-.229h.379Z" transform="translate(-407.356 -64.689)"/>
        <path id="Path_21" data-name="Path 21" class="cls-2" d="M434.194,70.6l.115.379h.37l-.3.229.115.379-.3-.238-.309.238.115-.379-.3-.229h.371Z" transform="translate(-427.78 -64.689)"/>
        <path id="Path_22" data-name="Path 22" class="cls-2" d="M456.494,70.6l.115.379h.379l-.309.229.124.379-.309-.238-.309.238.124-.379L456,70.979h.379Z" transform="translate(-448.113 -64.689)"/>
        <path id="Path_23" data-name="Path 23" class="cls-2" d="M478.885,70.6l.124.379h.37l-.3.229.115.379-.309-.238-.3.238.115-.379-.3-.229h.371Z" transform="translate(-468.537 -64.689)"/>
        <path id="Path_24" data-name="Path 24" class="cls-2" d="M378.294,59.4l.115.379h.379l-.309.229.115.379-.3-.229-.309.229.123-.379-.309-.229h.379Z" transform="translate(-376.812 -54.477)"/>
        <path id="Path_25" data-name="Path 25" class="cls-2" d="M378.294,81.8l.115.371h.379l-.309.238.115.379-.3-.238-.309.238.123-.379-.309-.238h.379Z" transform="translate(-376.812 -74.901)"/>
        <path id="Path_26" data-name="Path 26" class="cls-2" d="M400.594,81.8l.124.371h.371l-.3.238.115.379-.309-.238-.3.238.115-.379-.309-.238h.379Z" transform="translate(-397.145 -74.901)"/>
        <path id="Path_27" data-name="Path 27" class="cls-2" d="M422.994,81.8l.115.371h.379l-.309.238.115.379-.3-.238-.309.238.115-.379-.3-.238h.379Z" transform="translate(-417.568 -74.901)"/>
        <path id="Path_28" data-name="Path 28" class="cls-2" d="M445.294,81.8l.115.371h.379l-.3.238.115.379-.309-.238-.3.238.115-.379-.309-.238h.379Z" transform="translate(-437.901 -74.901)"/>
        <path id="Path_29" data-name="Path 29" class="cls-2" d="M467.694,81.8l.115.371h.379l-.309.238.115.379-.3-.238-.309.238.115-.379-.3-.238h.379Z" transform="translate(-458.325 -74.901)"/>
        <path id="Path_30" data-name="Path 30" class="cls-2" d="M400.594,59.4l.124.379h.371l-.3.229.115.379-.309-.229-.3.229.115-.379-.309-.229h.379Z" transform="translate(-397.145 -54.477)"/>
        <path id="Path_31" data-name="Path 31" class="cls-2" d="M422.994,59.4l.115.379h.379l-.309.229.115.379-.3-.229-.309.229.115-.379-.3-.229h.379Z" transform="translate(-417.568 -54.477)"/>
        <path id="Path_32" data-name="Path 32" class="cls-2" d="M445.294,59.4l.115.379h.379l-.3.229.115.379-.309-.229-.3.229.115-.379-.309-.229h.379Z" transform="translate(-437.901 -54.477)"/>
        <path id="Path_33" data-name="Path 33" class="cls-2" d="M467.694,59.4l.115.379h.379l-.309.229.115.379-.3-.229-.309.229.115-.379-.3-.229h.379Z" transform="translate(-458.325 -54.477)"/>
        <path id="Path_34" data-name="Path 34" class="cls-2" d="M389.494,48.3l.115.371h.371l-.3.238.115.371-.3-.229-.309.229.115-.371-.3-.238h.371Z" transform="translate(-387.024 -44.357)"/>
        <path id="Path_35" data-name="Path 35" class="cls-2" d="M411.794,48.3l.115.371h.379l-.309.238.124.371-.309-.229-.3.229.115-.371-.309-.238h.379Z" transform="translate(-407.356 -44.357)"/>
        <path id="Path_36" data-name="Path 36" class="cls-2" d="M434.194,48.3l.115.371h.37l-.3.238.115.371-.3-.229-.309.229.115-.371-.3-.238h.371Z" transform="translate(-427.78 -44.357)"/>
        <path id="Path_37" data-name="Path 37" class="cls-2" d="M456.494,48.3l.115.371h.379l-.309.238.124.371-.309-.229-.309.229.124-.371L456,48.671h.379Z" transform="translate(-448.113 -44.357)"/>
        <path id="Path_38" data-name="Path 38" class="cls-2" d="M478.885,48.3l.124.371h.37l-.3.238.115.371-.309-.229-.3.229.115-.371-.3-.238h.371Z" transform="translate(-468.537 -44.357)"/>
        <path id="Path_39" data-name="Path 39" class="cls-2" d="M400.594,37.1l.124.379h.371l-.3.229.115.379-.309-.238-.3.238.115-.379-.309-.229h.379Z" transform="translate(-397.145 -34.145)"/>
        <path id="Path_40" data-name="Path 40" class="cls-2" d="M422.994,37.1l.115.379h.379l-.309.229.115.379-.3-.238-.309.238.115-.379-.3-.229h.379Z" transform="translate(-417.568 -34.145)"/>
        <path id="Path_41" data-name="Path 41" class="cls-2" d="M445.294,37.1l.115.379h.379l-.3.229.115.379-.309-.238-.3.238.115-.379-.309-.229h.379Z" transform="translate(-437.901 -34.145)"/>
        <path id="Path_42" data-name="Path 42" class="cls-2" d="M467.694,37.1l.115.379h.379l-.309.229.115.379-.3-.238-.309.238.115-.379-.3-.229h.379Z" transform="translate(-458.325 -34.145)"/>
        <path id="Path_43" data-name="Path 43" class="cls-2" d="M389.494,25.9l.115.379h.371l-.3.229.115.379-.3-.238-.309.238.115-.379-.3-.229h.371Z" transform="translate(-387.024 -23.933)"/>
        <path id="Path_44" data-name="Path 44" class="cls-2" d="M411.794,25.9l.115.379h.379l-.309.229.124.379-.309-.238-.3.238.115-.379-.309-.229h.379Z" transform="translate(-407.356 -23.933)"/>
        <path id="Path_45" data-name="Path 45" class="cls-2" d="M434.194,25.9l.115.379h.37l-.3.229.115.379-.3-.238-.309.238.115-.379-.3-.229h.371Z" transform="translate(-427.78 -23.933)"/>
        <path id="Path_46" data-name="Path 46" class="cls-2" d="M456.494,25.9l.115.379h.379l-.309.229.124.379-.309-.238-.309.238.124-.379L456,26.279h.379Z" transform="translate(-448.113 -23.933)"/>
        <path id="Path_47" data-name="Path 47" class="cls-2" d="M478.885,25.9l.124.379h.37l-.3.229.115.379-.309-.238-.3.238.115-.379-.3-.229h.371Z" transform="translate(-468.537 -23.933)"/>
        <path id="Path_48" data-name="Path 48" class="cls-2" d="M389.494,3.6l.115.371h.371l-.3.238.115.371-.3-.229-.309.229.115-.371-.3-.238h.371Z" transform="translate(-387.024 -3.6)"/>
        <path id="Path_49" data-name="Path 49" class="cls-2" d="M400.594,14.7l.124.379h.371l-.3.229.115.379-.309-.229-.3.229.115-.379-.309-.229h.379Z" transform="translate(-397.145 -13.721)"/>
        <path id="Path_50" data-name="Path 50" class="cls-2" d="M411.794,3.6l.115.371h.379l-.309.238.124.371-.309-.229-.3.229.115-.371-.309-.238h.379Z" transform="translate(-407.356 -3.6)"/>
        <path id="Path_51" data-name="Path 51" class="cls-2" d="M422.994,14.7l.115.379h.379l-.309.229.115.379-.3-.229-.309.229.115-.379-.3-.229h.379Z" transform="translate(-417.568 -13.721)"/>
        <path id="Path_52" data-name="Path 52" class="cls-2" d="M434.194,3.6l.115.371h.37l-.3.238.115.371-.3-.229-.309.229L434,4.209l-.3-.238h.371Z" transform="translate(-427.78 -3.6)"/>
        <path id="Path_53" data-name="Path 53" class="cls-2" d="M445.294,14.7l.115.379h.379l-.3.229.115.379-.309-.229-.3.229.115-.379-.309-.229h.379Z" transform="translate(-437.901 -13.721)"/>
        <path id="Path_54" data-name="Path 54" class="cls-2" d="M456.494,3.6l.115.371h.379l-.309.238.124.371-.309-.229-.309.229.124-.371L456,3.971h.379Z" transform="translate(-448.113 -3.6)"/>
        <path id="Path_55" data-name="Path 55" class="cls-2" d="M467.694,14.7l.115.379h.379l-.309.229.115.379-.3-.229-.309.229.115-.379-.3-.229h.379Z" transform="translate(-458.325 -13.721)"/>
        <path id="Path_56" data-name="Path 56" class="cls-2" d="M478.885,3.6l.124.371h.37l-.3.238.115.371-.309-.229-.3.229.115-.371-.3-.238h.371Z" transform="translate(-468.537 -3.6)"/>
      </g>
    </g>
    <g id="Colombia_1_" transform="translate(54.945 -26)">
      <rect id="Rectangle_5" data-name="Rectangle 5" class="cls-4" width="21.828" height="7.625" transform="translate(1239.228 729.448)"/>
      <rect id="Rectangle_6" data-name="Rectangle 6" class="cls-3" width="21.828" height="3.463" transform="translate(1239.228 737.073)"/>
      <rect id="Rectangle_7" data-name="Rectangle 7" class="cls-1" width="21.828" height="3.463" transform="translate(1239.228 740.537)"/>
    </g>
  </g>
</svg>
