<svg xmlns="http://www.w3.org/2000/svg" viewBox="0 0 1074.11 320.53"><defs><style>.cls-1-logo{fill:#fff;}</style></defs><title>Logo</title><g id="Capa_2" data-name="Capa 2"><g id="Logo1"><path class="cls-1-logo" d="M17.07,0c3.15.75-2.72,86.73,30.82,117.26,37.67,34.28,135.78-86.18,181.63-57s40.47,97.57,74,93.34,77.92-55.94,109.56-25.24-40.27,154.17-131,185.45c-101.89,35.11-92.79-76.91-91.68-98.12,1.29-24.8,2.74-64.87-29.72-64.89-30.1,0-78.81,35.34-105.43,31.59C26.91,178.36,4,155,.48,100.94S13.92-.74,17.07,0Z"/><path class="cls-1-logo" d="M502.06,244.37a17,17,0,0,1,12,4.45q4.82,4.44,4.82,12.07a17.71,17.71,0,0,1-1.24,6.83,11.89,11.89,0,0,1-3.4,4.75,17.21,17.21,0,0,1-11.15,3.6q-4.38,0-9.93-.48V244.68C496.08,244.48,499.06,244.37,502.06,244.37Zm1,29.79q6.12,0,9.82-3.31t3.71-10q0-6.68-4.18-10.62a14.52,14.52,0,0,0-10.35-3.95q-3.94,0-6.85.22v27.32A68.84,68.84,0,0,0,503.06,274.16Z"/><path class="cls-1-logo" d="M526.73,275.68V247.54h13.14v1.73H528.72v10.24h10.06v1.69H528.72v12.66H540.3v1.82Z"/><path class="cls-1-logo" d="M553.85,248.75a6.13,6.13,0,0,0-3.82,1.13,3.76,3.76,0,0,0-1.47,3.17,5.68,5.68,0,0,0,2,4.2,26.15,26.15,0,0,0,3.58,2.84c1.46,1,2.46,1.72,3,2.15s1.21,1,2,1.78a6.71,6.71,0,0,1,2.13,4.9,6.41,6.41,0,0,1-2.41,5.44,10.8,10.8,0,0,1-6.72,1.84,11.44,11.44,0,0,1-7.22-2.25l1-1.52a11,11,0,0,0,6.25,2,8.39,8.39,0,0,0,5.13-1.38,4.62,4.62,0,0,0,1.85-3.91,5.5,5.5,0,0,0-1.87-4,25.62,25.62,0,0,0-3.49-2.81c-1.46-1-2.48-1.75-3-2.19a26.41,26.41,0,0,1-2-1.8,7,7,0,0,1-2.21-5.12,5.48,5.48,0,0,1,2.06-4.55,8.87,8.87,0,0,1,5.7-1.65,14.69,14.69,0,0,1,6.55,1.43l-.74,1.6A14.17,14.17,0,0,0,553.85,248.75Z"/><path class="cls-1-logo" d="M570.27,265.92l-4,9.76h-2L576,247.36h1.17L589,275.68h-2.21l-4.07-9.76Zm6.2-15.35c-.43,1.3-.83,2.39-1.17,3.26L571,264.23h11.1l-4.29-10.36C577.1,252.25,576.67,251.15,576.47,250.57Z"/><path class="cls-1-logo" d="M594.09,275.68v-28c2.48-.2,4.59-.31,6.33-.31a10.26,10.26,0,0,1,6.59,2.07,7.06,7.06,0,0,1,2.6,5.87,8.26,8.26,0,0,1-1.47,4.73,14.23,14.23,0,0,1-3.34,3.51q5.16,6.85,6.37,8.19a8.91,8.91,0,0,0,5.38,2.91l0,1.34a10.11,10.11,0,0,1-4-.71,9.44,9.44,0,0,1-3-2.28q-1.5-1.61-6.57-8.63c-2.35,0-4.64-.07-6.9-.21v11.53Zm7.8-13c1.13,0,2.34-.76,3.64-2.26a7.73,7.73,0,0,0,2-5.25,5.38,5.38,0,0,0-2-4.55,8.46,8.46,0,0,0-5.29-1.56c-1.16,0-2.52.06-4.08.17V262.5C598.16,262.64,600.1,262.72,601.89,262.72Z"/><path class="cls-1-logo" d="M620.7,275.68v-28c2.49-.2,4.6-.31,6.33-.31a10.29,10.29,0,0,1,6.6,2.07,7.06,7.06,0,0,1,2.6,5.87,8.27,8.27,0,0,1-1.48,4.73,13.87,13.87,0,0,1-3.34,3.51q5.16,6.85,6.38,8.19a8.91,8.91,0,0,0,5.38,2.91l0,1.34a10.06,10.06,0,0,1-3.94-.71,9.47,9.47,0,0,1-3-2.28c-1-1.07-3.18-3.94-6.57-8.63q-3.51,0-6.89-.21v11.53Zm7.81-13c1.13,0,2.34-.76,3.64-2.26a7.77,7.77,0,0,0,2-5.25,5.38,5.38,0,0,0-2-4.55,8.46,8.46,0,0,0-5.29-1.56c-1.15,0-2.51.06-4.07.17V262.5C624.78,262.64,626.72,262.72,628.51,262.72Z"/><path class="cls-1-logo" d="M657.57,276.11a13.52,13.52,0,0,1-10.1-4.2,15,15,0,0,1,0-20.6,14.26,14.26,0,0,1,20.21,0,15.07,15.07,0,0,1,0,20.6A13.53,13.53,0,0,1,657.57,276.11Zm0-27.23a11.37,11.37,0,0,0-8.68,3.69,13.57,13.57,0,0,0,0,18.06,12.09,12.09,0,0,0,17.33,0,13.63,13.63,0,0,0,0-18.06A11.31,11.31,0,0,0,657.6,248.88Z"/><path class="cls-1-logo" d="M679,275.68V247.54h2v26.32h12.92v1.82Z"/><path class="cls-1-logo" d="M699.05,275.68V247.54h2v26.32H714v1.82Z"/><path class="cls-1-logo" d="M723,265.92l-4,9.76h-2l11.79-28.32h1.17l11.88,28.32h-2.21l-4.07-9.76Zm6.2-15.35c-.43,1.3-.82,2.39-1.17,3.26l-4.34,10.4h11.1l-4.29-10.36C729.81,252.25,729.37,251.15,729.17,250.57Z"/><path class="cls-1-logo" d="M754.94,247.28a15.43,15.43,0,0,1,10.86,4q4.37,4,4.36,10.9t-4,10.37A15.25,15.25,0,0,1,755.81,276q-4.38,0-9-.44v-28C749.1,247.36,751.82,247.28,754.94,247.28Zm.87,26.93a12.88,12.88,0,0,0,8.91-3q3.36-3,3.36-9a12.51,12.51,0,0,0-3.8-9.58,13.12,13.12,0,0,0-9.34-3.55c-2.63,0-4.65.05-6.07.17V273.9A60.61,60.61,0,0,0,755.81,274.21Z"/><path class="cls-1-logo" d="M790,276.11a13.53,13.53,0,0,1-10.11-4.2,15.07,15.07,0,0,1,0-20.6,14.26,14.26,0,0,1,20.21,0,15,15,0,0,1,0,20.6A13.52,13.52,0,0,1,790,276.11Zm0-27.23a11.34,11.34,0,0,0-8.67,3.69,13.54,13.54,0,0,0,0,18.06,12.08,12.08,0,0,0,17.32,0,13.63,13.63,0,0,0,0-18.06A11.31,11.31,0,0,0,790,248.88Z"/><path class="cls-1-logo" d="M811.39,275.68v-28c2.49-.2,4.6-.31,6.33-.31a10.29,10.29,0,0,1,6.6,2.07,7.06,7.06,0,0,1,2.6,5.87,8.2,8.2,0,0,1-1.48,4.73,13.87,13.87,0,0,1-3.34,3.51q5.16,6.85,6.38,8.19a8.91,8.91,0,0,0,5.38,2.91l-.05,1.34a10.06,10.06,0,0,1-3.94-.71,9.47,9.47,0,0,1-3-2.28c-1-1.07-3.18-3.94-6.57-8.63q-3.51,0-6.89-.21v11.53Zm7.81-13c1.13,0,2.34-.76,3.64-2.26a7.77,7.77,0,0,0,1.95-5.25,5.38,5.38,0,0,0-2-4.55,8.46,8.46,0,0,0-5.29-1.56c-1.15,0-2.51.06-4.07.17V262.5C815.47,262.64,817.41,262.72,819.2,262.72Z"/><path class="cls-1-logo" d="M859.05,268.83l8.11-20.73h1.25L875.48,269l1,3.51a25.67,25.67,0,0,1,1.09-3.47l7.2-21.46h2.08l-9.8,28.32h-1.17q-7.24-20.78-7.51-21.6c-.26-.78-.52-1.55-.78-2.3-.14.49-.53,1.52-1.17,3.08l-8.19,20.82H857.1l-9.89-28.32h2.21l7.16,21.12c.4,1.15.78,2.44,1.12,3.86Q857.93,271.65,859.05,268.83Z"/><path class="cls-1-logo" d="M891.93,275.68V247.54h13.14v1.73H893.93v10.24H904v1.69H893.93v12.66H905.5v1.82Z"/><path class="cls-1-logo" d="M911.59,247.67q3.07-.25,6.33-.26a9.72,9.72,0,0,1,5.57,1.56,5.14,5.14,0,0,1,2.32,4.55,7.62,7.62,0,0,1-1.21,4.17,8.5,8.5,0,0,1-3,2.9,9.67,9.67,0,0,1,4.68,3,7.08,7.08,0,0,1,1.87,4.81,6.83,6.83,0,0,1-2.36,5.64,10.38,10.38,0,0,1-6.66,1.91q-4.29,0-7.59-.31Zm12.27,5.81a3.66,3.66,0,0,0-1.77-3.27,7.66,7.66,0,0,0-4.25-1.15c-1.65,0-3.07,0-4.25.13v10.62q3.76,0,6,.22a8.91,8.91,0,0,0,3-2.67A6.38,6.38,0,0,0,923.86,253.48Zm-8.32,8-1.95,0V274q1.86.17,6,.17a6.9,6.9,0,0,0,4.66-1.58,5.05,5.05,0,0,0,1.85-4,5.7,5.7,0,0,0-1.85-4.21,10.16,10.16,0,0,0-4.79-2.53A17.63,17.63,0,0,0,915.54,261.46Z"/><path class="cls-1-logo" d="M557.25,127.67c.22,1.23.38,2.08.49,2.55a9.39,9.39,0,0,1,.16,1.9,14.58,14.58,0,0,1-1.57,6.66,9.36,9.36,0,0,1-4.28,4.39,21.49,21.49,0,0,0-5.32-5,31.7,31.7,0,0,0-6.88-3.47,42.8,42.8,0,0,0-7.75-2,49.27,49.27,0,0,0-7.81-.65,40.79,40.79,0,0,0-7.1.59,30.23,30.23,0,0,0-5.85,1.63,11.44,11.44,0,0,0-4,2.55,4.85,4.85,0,0,0-1.47,3.47,8.47,8.47,0,0,0,2.93,4.82,39.59,39.59,0,0,0,6.4,4.77q3.79,2.34,8.4,4.61t9,4.34q5.54,2.6,9.54,4.82a28.49,28.49,0,0,1,6.61,4.88,17.52,17.52,0,0,1,3.91,6,22.72,22.72,0,0,1,1.3,8.13A28.76,28.76,0,0,1,552.15,193a24.15,24.15,0,0,1-5.36,8.4,24.88,24.88,0,0,1-8.51,5.58,29.67,29.67,0,0,1-11.17,2A52,52,0,0,1,514,207.13a61.72,61.72,0,0,1-13.17-5,39.83,39.83,0,0,1-10.19-7.37q-4.06-4.17-4.06-8.83a16.66,16.66,0,0,1,1.24-5.53,23.1,23.1,0,0,1,4.5-7.05c.22,2.17,1.39,4.74,3.53,7.7a31.22,31.22,0,0,0,9.59,8.24,47,47,0,0,0,12.3,5,49.42,49.42,0,0,0,11.87,1.57,26.78,26.78,0,0,0,9.87-1.52,17.93,17.93,0,0,0,6-3.63,12.9,12.9,0,0,0,4-7.75,6.55,6.55,0,0,0-2-4.17,23.76,23.76,0,0,0-5.1-3.91q-3.2-1.89-7.42-3.85t-8.78-3.9q-6.84-3-11.77-5.69a45.26,45.26,0,0,1-8.13-5.42,18.41,18.41,0,0,1-4.66-5.8,15.87,15.87,0,0,1-1.46-6.94,20.17,20.17,0,0,1,3.68-11.49,22.84,22.84,0,0,1,10.63-8.24,31.25,31.25,0,0,1,7.42-2.17,48.15,48.15,0,0,1,7.75-.65,50.35,50.35,0,0,1,14,2A104.28,104.28,0,0,1,557.25,127.67Z"/><path class="cls-1-logo" d="M565.92,159.22a6.89,6.89,0,0,1-1-2.77,18.32,18.32,0,0,1-.44-3.63,35.63,35.63,0,0,0,5.42.44h4.77c1.09-2.15,2.26-4.27,3.53-6.38s2.49-4,3.68-5.79a49.72,49.72,0,0,1,3.36-4.45,13,13,0,0,1,2.44-2.36,13.42,13.42,0,0,1,2.77.38,34,34,0,0,1,3.41,1,32.09,32.09,0,0,1,3.14,1.25,5.64,5.64,0,0,1,2,1.3q-3.25,4.09-5.59,7.59t-5,8h4.39a31.39,31.39,0,0,0,4.5-.33,4.18,4.18,0,0,1,.87,1.36,4.4,4.4,0,0,1,.32,1.68,35.83,35.83,0,0,1-12.9,2.06q-2.7,5.22-4.82,10.38t-3.58,9.94a91.09,91.09,0,0,0-2.28,9,41.07,41.07,0,0,0-.81,7.61c0,3.19,1.19,5,3.58,5.33a24.89,24.89,0,0,0,6.18-1.63,20.64,20.64,0,0,0,5.2-3,4.37,4.37,0,0,1,.76,1.62,11.18,11.18,0,0,1-2.22,2.26c-1,.86-2.19,1.71-3.41,2.53a31.24,31.24,0,0,1-3.58,2.1,9.07,9.07,0,0,1-2.61,1,14.58,14.58,0,0,1-5.42-1.08,22.58,22.58,0,0,1-4.93-2.72,15.82,15.82,0,0,1-3.63-3.63,6.89,6.89,0,0,1-1.41-4,37.89,37.89,0,0,1,.71-6.57q.69-4,2-8.63t3-9.77q1.73-5.1,3.79-10.09Z"/><path class="cls-1-logo" d="M634.05,155.86a36.94,36.94,0,0,1-2.38,11.54,25.15,25.15,0,0,1-5.58,8.46,40.4,40.4,0,0,1-8.84,6.56,96.83,96.83,0,0,1-12.14,5.64c0,.43,0,.88-.05,1.35s-.06,1-.06,1.46a20,20,0,0,0,.22,2.93,11.47,11.47,0,0,0,.76,2.82,5.42,5.42,0,0,0,1.51,2.11,3.75,3.75,0,0,0,2.5.82,13.67,13.67,0,0,0,5.74-1.3,30.57,30.57,0,0,0,5.37-3.2,43.8,43.8,0,0,0,4.77-4.12q2.22-2.22,4-4.07a22.75,22.75,0,0,1,1.84,1.85A52,52,0,0,1,621,199.49,30.36,30.36,0,0,1,610,205q-7.49-.87-11.65-5.48a15.93,15.93,0,0,1-4.18-11.11,34.61,34.61,0,0,1,1.25-9,43.82,43.82,0,0,1,3.47-8.89,50.78,50.78,0,0,1,5.2-8.08,42.83,42.83,0,0,1,6.4-6.61,31,31,0,0,1,7-4.45,17.6,17.6,0,0,1,7.21-1.62Q629.72,150.33,634.05,155.86Zm-7.47,3.57a16.29,16.29,0,0,0-6.08,2.39,25.56,25.56,0,0,0-5.9,5.2,40.68,40.68,0,0,0-5,7.59,43.68,43.68,0,0,0-3.58,9.33,48.47,48.47,0,0,0,14.42-10.68A22.23,22.23,0,0,0,626.58,159.43Z"/><path class="cls-1-logo" d="M642.26,162.36a23.84,23.84,0,0,1,.27-3.68,7,7,0,0,1,1.14-3,5.93,5.93,0,0,1,2.38-2,9.83,9.83,0,0,1,4-.7,20,20,0,0,1,3.41.33,5,5,0,0,1,2.77,1.19c-.29,1.23-.53,2.31-.71,3.25s-.32,2-.43,3.09-.2,2.46-.27,4-.15,3.56-.22,6q-.23,7.37-.7,13.17a56.14,56.14,0,0,1-2.23,11.54c0,.29.11.44.33.44a26,26,0,0,0,3.68-3.47c1.38-1.52,2.82-3.24,4.34-5.15s3-4,4.55-6.13,2.93-4.29,4.23-6.39q2.61-4.56,5.75-11.39a89.81,89.81,0,0,0,5.2-14.63,7,7,0,0,1,1.68.27c.69.18,1.37.4,2.06.65a15.27,15.27,0,0,1,1.84.82,4.92,4.92,0,0,1,1.14.75,28.55,28.55,0,0,1-2.22,9.54,65.57,65.57,0,0,1-4.82,9.44,96.05,96.05,0,0,1-6,8.56q-3.13,4-5.74,6.94a119.58,119.58,0,0,1-10.47,10.84,82.41,82.41,0,0,1-12.52,9.21,11.36,11.36,0,0,1-4.44-2.87,5.54,5.54,0,0,1-1.63-3.74,9,9,0,0,1,.6-3c.4-1.12.85-2.57,1.35-4.34a53.08,53.08,0,0,0,1.36-6.66,71.24,71.24,0,0,0,.6-10.2q0-3.57-.17-7.21C642.32,165.53,642.26,163.66,642.26,162.36Z"/><path class="cls-1-logo" d="M722.72,155.86a37.22,37.22,0,0,1-2.38,11.54,25.33,25.33,0,0,1-5.59,8.46,40.32,40.32,0,0,1-8.83,6.56,97.5,97.5,0,0,1-12.14,5.64q0,.65-.06,1.35c0,.47-.05,1-.05,1.46a21.38,21.38,0,0,0,.21,2.93,11.93,11.93,0,0,0,.76,2.82,5.34,5.34,0,0,0,1.52,2.11,3.72,3.72,0,0,0,2.49.82,13.72,13.72,0,0,0,5.75-1.3,30.57,30.57,0,0,0,5.37-3.2,44.65,44.65,0,0,0,4.76-4.12c1.49-1.48,2.8-2.84,4-4.07a23,23,0,0,1,1.85,1.85,52.52,52.52,0,0,1-10.68,10.78,30.4,30.4,0,0,1-11,5.48q-7.47-.87-11.65-5.48a16,16,0,0,1-4.17-11.11,34.59,34.59,0,0,1,1.24-9,44.41,44.41,0,0,1,3.47-8.89,50.83,50.83,0,0,1,5.21-8.08,42.77,42.77,0,0,1,6.39-6.61,31.31,31.31,0,0,1,7.05-4.45,17.57,17.57,0,0,1,7.21-1.62Q718.38,150.33,722.72,155.86Zm-7.48,3.57a16.31,16.31,0,0,0-6.07,2.39,25.39,25.39,0,0,0-5.91,5.2,41.69,41.69,0,0,0-5,7.59,43.68,43.68,0,0,0-3.58,9.33,48.34,48.34,0,0,0,14.42-10.68A22.23,22.23,0,0,0,715.24,159.43Z"/><path class="cls-1-logo" d="M746,148.16a11.46,11.46,0,0,1,5.31,3.85,19.94,19.94,0,0,1,3.68,6.56,51.45,51.45,0,0,1-3.68,7q-2.49,4.13-5,8.41t-4.5,8.13a20.29,20.29,0,0,0-2.33,6.34q1.74-1.85,3.85-4.28t4.12-4.88c1.34-1.63,2.58-3.11,3.74-4.45s2.06-2.33,2.71-3q2.05-2.16,4.88-5a77.59,77.59,0,0,1,5.91-5.42A44.42,44.42,0,0,1,771,157.1a11.83,11.83,0,0,1,5.74-1.78,6.42,6.42,0,0,1,4.72,1.89,16.72,16.72,0,0,1,3,4c0,.15-.27.34-.81.6a9,9,0,0,0-2.33,2.11,43.48,43.48,0,0,0-3.42,5.37q-1.89,3.41-3.68,7.37a60.26,60.26,0,0,0-3,8.07,27.06,27.06,0,0,0-1.2,7.48c0,1.81.24,3,.71,3.47a2.59,2.59,0,0,0,2,.76,6.52,6.52,0,0,0,2.5-.54,5.79,5.79,0,0,1,2.06-.54,1.58,1.58,0,0,1,.7.92,3.57,3.57,0,0,1,.27,1.25,16.7,16.7,0,0,1-2.06,1.51,25.05,25.05,0,0,1-2.49,1.41,21,21,0,0,1-2.55,1.09,6.81,6.81,0,0,1-2.22.43,12.46,12.46,0,0,1-5.15-.92,8,8,0,0,1-3.14-2.44,8.8,8.8,0,0,1-1.57-3.63,22.3,22.3,0,0,1-.44-4.5,21.57,21.57,0,0,1,.22-2.93,25.51,25.51,0,0,1,.87-3.85q.64-2.22,1.84-5.31t3-7.42a21.56,21.56,0,0,0-2.92,1.51,28.09,28.09,0,0,0-5.86,4.67,132.51,132.51,0,0,0-9.16,9.64q-4.07,4.78-8.29,10.63-2.39,3.36-4.17,5.69a12.6,12.6,0,0,1-3.09,3.09,8,8,0,0,1-3.36-3.63,22.53,22.53,0,0,1-1.63-4.83,28.82,28.82,0,0,1,.6-5.2q.59-3.15,1.62-7t2.55-8.08q1.51-4.23,3.36-8.45a115.14,115.14,0,0,1,7.53-15Q745.16,148.6,746,148.16Z"/><path class="cls-1-logo" d="M818.12,209c-3.47-1-5.88-2-7.21-3a4.61,4.61,0,0,1-2-3.8,18,18,0,0,1,1-4.89,70.3,70.3,0,0,1,2.87-7.43q1.89-4.29,4.55-9.5t6-11.19h-8.67c.43-1.08,1.66-2,3.68-2.82a42.24,42.24,0,0,1,8-2.07,151.75,151.75,0,0,1,9-13.49q4.82-6.42,9.7-11.8a97.51,97.51,0,0,1,9.76-9.46,56.2,56.2,0,0,1,9.32-6.47c.07-.51.12-.94.16-1.31s.06-.61.06-.76a15,15,0,0,1,4.06.76,42.66,42.66,0,0,1,5,1.84,43.52,43.52,0,0,1,4.34,2.22c1.26.76,2,1.4,2.11,1.9q-3.58,6.29-7,18.81a220.15,220.15,0,0,0-5.74,30q-.54,4.33-.92,9.86t-.38,12.36v4.88c0,1.66.07,3.4.21,5.2a1,1,0,0,1-.43.11h-.87a15.4,15.4,0,0,1-3.52-.48,35.21,35.21,0,0,1-3.9-1.17,17.72,17.72,0,0,1-3.26-1.55,4.73,4.73,0,0,1-1.68-1.5c-.07-.92-.1-1.83-.1-2.72v-2.82q0-6.63.48-13.45t1.68-14.09a6.51,6.51,0,0,0-4-1.14H831.34q-2.6,4.81-4.88,9.57a88.18,88.18,0,0,0-3.9,9.57,84,84,0,0,0-3,10.27A65.64,65.64,0,0,0,818.12,209ZM860,143.86c.29-1,.63-2.41,1-4.19s.78-3.64,1.14-5.6a22.26,22.26,0,0,0-6,3.58,58.85,58.85,0,0,0-6.83,6.46q-3.51,3.85-7.15,8.69t-7,10.26q9.11-.92,20.7-.91.87-4.58,1.9-9.09T860,143.86Z"/><path class="cls-1-logo" d="M894.51,148.16a11.46,11.46,0,0,1,5.31,3.85,20.14,20.14,0,0,1,3.69,6.56,52.82,52.82,0,0,1-3.69,7q-2.49,4.13-5,8.41t-4.5,8.13a20,20,0,0,0-2.33,6.34c1.15-1.23,2.44-2.66,3.85-4.28s2.78-3.26,4.11-4.88,2.59-3.11,3.74-4.45,2.06-2.33,2.72-3q2.05-2.16,4.87-5a77.59,77.59,0,0,1,5.91-5.42,45,45,0,0,1,6.23-4.34,11.86,11.86,0,0,1,5.75-1.78,6.43,6.43,0,0,1,4.72,1.89,17,17,0,0,1,3,4c0,.15-.27.34-.82.6a9.12,9.12,0,0,0-2.33,2.11,42.43,42.43,0,0,0-3.41,5.37q-1.91,3.41-3.69,7.37a61.67,61.67,0,0,0-3,8.07,27.4,27.4,0,0,0-1.19,7.48c0,1.81.23,3,.7,3.47a2.59,2.59,0,0,0,2,.76,6.47,6.47,0,0,0,2.49-.54,5.84,5.84,0,0,1,2.06-.54,1.59,1.59,0,0,1,.71.92,3.57,3.57,0,0,1,.27,1.25,17.5,17.5,0,0,1-2.06,1.51,27.54,27.54,0,0,1-2.49,1.41,21,21,0,0,1-2.55,1.09,6.81,6.81,0,0,1-2.22.43,12.43,12.43,0,0,1-5.15-.92,8,8,0,0,1-3.15-2.44,8.94,8.94,0,0,1-1.57-3.63,22.32,22.32,0,0,1-.43-4.5,23.16,23.16,0,0,1,.21-2.93,28.23,28.23,0,0,1,.87-3.85c.43-1.48,1.05-3.25,1.84-5.31s1.81-4.53,3-7.42a21.28,21.28,0,0,0-2.93,1.51,27.81,27.81,0,0,0-5.85,4.67,130.39,130.39,0,0,0-9.16,9.64q-4.07,4.78-8.29,10.63-2.4,3.36-4.18,5.69a12.26,12.26,0,0,1-3.09,3.09,8,8,0,0,1-3.36-3.63,23.09,23.09,0,0,1-1.63-4.83,28.82,28.82,0,0,1,.6-5.2q.6-3.15,1.63-7t2.54-8.08c1-2.82,2.14-5.64,3.37-8.45a112.65,112.65,0,0,1,7.53-15C892.51,150.4,893.93,148.45,894.51,148.16Z"/><path class="cls-1-logo" d="M969.07,156.94a10.57,10.57,0,0,1,2.55.38,13.86,13.86,0,0,1,2.66,1,11.72,11.72,0,0,1,2,1.24q.81.66.81,1.2-2.16,4.55-4,9.16c-1.23,3.07-2.27,6-3.14,8.83a74.33,74.33,0,0,0-2,7.92,34.59,34.59,0,0,0-.7,6.39,16.63,16.63,0,0,0,.65,5,4.83,4.83,0,0,0,2.17,2.88,11.71,11.71,0,0,1-3.36,1.41,14.74,14.74,0,0,1-3.69.54q-5.85,0-5.85-8,0-6.16,4.12-16.91A67.67,67.67,0,0,1,950.53,195a34.16,34.16,0,0,1-5.9,5.45,14,14,0,0,1-5.48,2.54,7.57,7.57,0,0,1-6.5-3.65,16.1,16.1,0,0,1-2.49-9.31,35.55,35.55,0,0,1,2.6-12.84,57.26,57.26,0,0,1,6.66-12.52,47.5,47.5,0,0,1,8.84-9.64q4.77-3.87,9.21-3.86a8.37,8.37,0,0,1,2.44,1.3,18.14,18.14,0,0,1,2.6,2.27,17.4,17.4,0,0,1,2.12,2.64,5.7,5.7,0,0,1,1,2.33,19.53,19.53,0,0,0-8.94,4.22,44.06,44.06,0,0,0-8.35,8.6,50.53,50.53,0,0,0-6.12,10.76A28,28,0,0,0,939.8,194a2.43,2.43,0,0,0,1.52,2.59c2.09-.43,4.52-2.22,7.26-5.37a103.42,103.42,0,0,0,10-14.58q1.08-1.95,2.44-4.33c.9-1.59,1.82-3.26,2.76-5s1.86-3.49,2.77-5.26S968.28,158.61,969.07,156.94Z"/><path class="cls-1-logo" d="M1019.14,183.94q-2.49,7.91-5,14.41a121.35,121.35,0,0,1-5.31,12,85.67,85.67,0,0,1-6.07,10.08,78.54,78.54,0,0,1-7.16,8.73,39.89,39.89,0,0,1-10.3,8,22.85,22.85,0,0,1-10.62,2.76,24.89,24.89,0,0,1-5.37-.59,27,27,0,0,1-5-1.63,21.19,21.19,0,0,1-4.12-2.38,8.5,8.5,0,0,1-2.54-2.88,2.76,2.76,0,0,1,1.52-2.27c.86.79,1.59,1.41,2.16,1.84A13.83,13.83,0,0,0,963,233a5.06,5.06,0,0,0,1.74.55,18.71,18.71,0,0,0,2.11.11A22.85,22.85,0,0,0,979,230.06a43.36,43.36,0,0,0,11.17-10.3,79,79,0,0,0,9.59-16.15,128.35,128.35,0,0,0,7.37-21.19c-.94,1.44-2.09,3.21-3.47,5.3a76.73,76.73,0,0,1-4.55,6.21,54.49,54.49,0,0,1-5.15,5.57,14.8,14.8,0,0,1-5.15,3.35,12,12,0,0,1-3.63-.6,14.48,14.48,0,0,1-3.58-1.69,13.78,13.78,0,0,1-3-2.62,7.82,7.82,0,0,1-1.73-3.49,48.06,48.06,0,0,1,.21-5,37,37,0,0,1,.76-4.17,83.32,83.32,0,0,1,2.88-9.33,92.88,92.88,0,0,1,4.44-10.24,76.07,76.07,0,0,1,5.64-9.43,30,30,0,0,1,6.45-6.89,17.68,17.68,0,0,1,2.16.17,15.32,15.32,0,0,1,2.72.59,24.43,24.43,0,0,1,2.71,1,7.87,7.87,0,0,1,2.27,1.57,53.93,53.93,0,0,0-5.2,7.27A116.92,116.92,0,0,0,993,177.76a35.83,35.83,0,0,0-1.3,3.47q-.76,2.27-1.47,4.77T989,190.87a17.59,17.59,0,0,0-.54,3.8,2.4,2.4,0,0,0,.27,1.3,3.29,3.29,0,0,0,.49.65c1.3-.22,3-1.28,5.2-3.2a48.31,48.31,0,0,0,7.37-8.94q2.6-3.9,4.77-7.75t4.28-7.75q2.11-3.91,4.39-8t4.88-8.45a16.13,16.13,0,0,1,3,.32,28.31,28.31,0,0,1,3.14.82,16.32,16.32,0,0,1,2.66,1.08,5.51,5.51,0,0,1,1.68,1.25q-3.36,7.16-6.29,14T1019.14,183.94Z"/><path class="cls-1-logo" d="M1066.08,156.94a10.43,10.43,0,0,1,2.55.38,13.86,13.86,0,0,1,2.66,1,11.72,11.72,0,0,1,2,1.24c.55.44.82.84.82,1.2q-2.17,4.55-4,9.16t-3.15,8.83a74.15,74.15,0,0,0-2,7.92,34.7,34.7,0,0,0-.71,6.39,16.63,16.63,0,0,0,.65,5,4.91,4.91,0,0,0,2.17,2.88,11.71,11.71,0,0,1-3.36,1.41,14.68,14.68,0,0,1-3.69.54q-5.85,0-5.85-8,0-6.16,4.12-16.91a65.93,65.93,0,0,1-5,9.34,66.77,66.77,0,0,1-5.74,7.72,33.84,33.84,0,0,1-5.91,5.45,14,14,0,0,1-5.48,2.54,7.57,7.57,0,0,1-6.5-3.65,16.17,16.17,0,0,1-2.49-9.31,35.55,35.55,0,0,1,2.6-12.84,57.3,57.3,0,0,1,6.67-12.52,47.47,47.47,0,0,1,8.83-9.64q4.77-3.87,9.22-3.86a8.49,8.49,0,0,1,2.44,1.3,18.7,18.7,0,0,1,2.6,2.27,17.31,17.31,0,0,1,2.11,2.64,5.89,5.89,0,0,1,1,2.33,19.56,19.56,0,0,0-8.95,4.22,43.74,43.74,0,0,0-8.34,8.6,50.14,50.14,0,0,0-6.13,10.76,28,28,0,0,0-2.38,10.71,2.42,2.42,0,0,0,1.51,2.59q3.15-.65,7.27-5.37a103.53,103.53,0,0,0,10-14.58c.72-1.3,1.54-2.74,2.44-4.33s1.82-3.26,2.76-5,1.86-3.49,2.77-5.26S1065.29,158.61,1066.08,156.94Z"/></g></g></svg>