<svg xmlns="http://www.w3.org/2000/svg" viewBox="0 0 663.424 197.91">
  <defs>
    <style>
      .cls-1, .cls-2 {
        fill: #fff;
      }

      .cls-2 {
        font-size: 19px;
        font-family: JuliusSansOne-Regular, Julius Sans One;
      }
    </style>
  </defs>
  <g id="Logo" transform="translate(-0.045 0.004)">
    <g id="Group_7" data-name="Group 7" transform="translate(0.045 -0.004)">
      <path id="Path_57" data-name="Path 57" class="cls-1" d="M10.485,0c1.9.446-1.674,53.569,19.084,72.43,23.325,21.2,83.925-53.234,112.16-35.266s25,60.265,45.757,57.7,48.1-34.6,67.631-15.624-24.887,95.2-80.912,114.5c-62.944,21.651-57.364-47.543-56.582-60.6.781-15.289,1.674-40.065-18.3-40.065-18.638,0-48.659,21.874-65.176,19.53C16.623,110.152,2.45,95.755.33,62.386S8.588-.446,10.485,0Z" transform="translate(-0.045 0.004)"/>
    </g>
    <g id="Group_8" data-name="Group 8" transform="translate(301.057 142.562)">
      <text id="Desarrollador_web" data-name="Desarrollador web" class="cls-2" transform="translate(0 16)"><tspan x="0" y="0">Desarrollador web</tspan></text>
    </g>
    <g id="Group_10" data-name="Group 10" transform="translate(300.54 74.328)">
      <g id="Group_9" data-name="Group 9">
        <path id="Path_58" data-name="Path 58" class="cls-1" d="M312.936,71.176a6.835,6.835,0,0,0,.335,1.562,3.439,3.439,0,0,1,.112,1.116,8.689,8.689,0,0,1-1,4.129,5.66,5.66,0,0,1-2.678,2.678,14.336,14.336,0,0,0-3.236-3.125,18.838,18.838,0,0,0-4.241-2.12,23.3,23.3,0,0,0-4.8-1.228,36.557,36.557,0,0,0-4.8-.446,26.514,26.514,0,0,0-4.352.335,15.03,15.03,0,0,0-3.571,1,6.651,6.651,0,0,0-2.455,1.562,3.265,3.265,0,0,0-.893,2.12,5.421,5.421,0,0,0,1.786,3.013,22.2,22.2,0,0,0,3.906,2.9,44.135,44.135,0,0,0,5.134,2.79c1.9.893,3.794,1.786,5.58,2.678,2.232,1.116,4.241,2.12,5.915,3.013a17.159,17.159,0,0,1,4.129,3.013,11.209,11.209,0,0,1,2.455,3.683,13.188,13.188,0,0,1,.781,5.022,16.951,16.951,0,0,1-1.116,6.361,16.192,16.192,0,0,1-3.348,5.245,17.164,17.164,0,0,1-5.245,3.46,19.119,19.119,0,0,1-6.919,1.228,31.647,31.647,0,0,1-8.147-1.116,39.713,39.713,0,0,1-8.147-3.125,22.657,22.657,0,0,1-6.25-4.576,7.829,7.829,0,0,1-2.567-5.469,9.837,9.837,0,0,1,.781-3.46,16.556,16.556,0,0,1,2.79-4.352,10.585,10.585,0,0,0,2.232,4.8,19.6,19.6,0,0,0,5.915,5.134,29.49,29.49,0,0,0,7.589,3.125,29.177,29.177,0,0,0,7.366,1,18.793,18.793,0,0,0,6.138-.893,11.52,11.52,0,0,0,3.683-2.232,7.931,7.931,0,0,0,1.9-2.678,6.631,6.631,0,0,0,.558-2.12,3.712,3.712,0,0,0-1.228-2.567,15.228,15.228,0,0,0-3.125-2.455,43.183,43.183,0,0,0-4.576-2.344c-1.786-.781-3.571-1.562-5.468-2.455-2.79-1.228-5.245-2.455-7.254-3.571a32.6,32.6,0,0,1-5.022-3.348,12.034,12.034,0,0,1-2.9-3.571,10.279,10.279,0,0,1-.893-4.241,13.127,13.127,0,0,1,2.232-7.143,14.664,14.664,0,0,1,6.585-5.134,15.515,15.515,0,0,1,4.576-1.339,36.563,36.563,0,0,1,4.8-.446,31.975,31.975,0,0,1,8.593,1.228A87.193,87.193,0,0,1,312.936,71.176Z" transform="translate(-269.3 -66.6)"/>
        <path id="Path_59" data-name="Path 59" class="cls-1" d="M313.409,89.7a3.57,3.57,0,0,1-.558-1.674,8.373,8.373,0,0,1-.223-2.232,16.894,16.894,0,0,0,3.348.223h2.9a44.336,44.336,0,0,1,2.232-3.906c.781-1.339,1.562-2.455,2.232-3.571a20.173,20.173,0,0,1,2.12-2.79,8.452,8.452,0,0,1,1.451-1.451,11.606,11.606,0,0,1,1.674.223,20.124,20.124,0,0,1,2.12.558c.67.223,1.339.558,1.9.781a3.879,3.879,0,0,1,1.228.781c-1.339,1.674-2.455,3.236-3.46,4.687s-2.009,3.125-3.125,4.911h2.679a23.5,23.5,0,0,0,2.79-.223,2.432,2.432,0,0,1,.558.893,3.258,3.258,0,0,1,.223,1,21.122,21.122,0,0,1-7.924,1.228Q323.9,92.324,322.56,95.5c-.893,2.12-1.563,4.129-2.232,6.138a41.323,41.323,0,0,0-1.451,5.58,25.3,25.3,0,0,0-.446,4.687c0,2.009.781,3.013,2.232,3.236a21.062,21.062,0,0,0,3.794-1,11.753,11.753,0,0,0,3.237-1.9,3.432,3.432,0,0,1,.446,1A7.554,7.554,0,0,1,326.8,114.7c-.67.558-1.339,1-2.12,1.562a23.615,23.615,0,0,1-2.232,1.339,4.4,4.4,0,0,1-1.562.558,8.956,8.956,0,0,1-3.348-.67,13.1,13.1,0,0,1-3.013-1.674,10.57,10.57,0,0,1-2.232-2.232,4.423,4.423,0,0,1-.893-2.455,19.117,19.117,0,0,1,.446-4.018c.335-1.674.67-3.46,1.228-5.357s1.116-3.906,1.9-6.026,1.451-4.129,2.344-6.25h-3.906Z" transform="translate(-264.416 -65.707)"/>
        <path id="Path_60" data-name="Path 60" class="cls-1" d="M353.464,86.694a25.236,25.236,0,0,1-1.451,7.143,16.507,16.507,0,0,1-3.46,5.245,23.129,23.129,0,0,1-5.469,4.018,59.091,59.091,0,0,1-7.477,3.46v1.786a9.615,9.615,0,0,0,.111,1.786,8.359,8.359,0,0,0,.446,1.786,4.012,4.012,0,0,0,.893,1.339,2.419,2.419,0,0,0,1.563.558,8.27,8.27,0,0,0,3.571-.781,26.58,26.58,0,0,0,3.348-2.009,31.791,31.791,0,0,0,2.9-2.567c.893-.893,1.674-1.786,2.455-2.567l1.116,1.116a34.126,34.126,0,0,1-6.585,6.7,17.493,17.493,0,0,1-6.808,3.348,11.091,11.091,0,0,1-7.254-3.348,10.126,10.126,0,0,1-2.567-6.808,19.79,19.79,0,0,1,.781-5.58,32.588,32.588,0,0,1,2.121-5.468,29.656,29.656,0,0,1,3.236-5.022,34.664,34.664,0,0,1,3.906-4.129A23.751,23.751,0,0,1,343.2,83.9a10.8,10.8,0,0,1,4.464-1C349.781,83.123,351.679,84.351,353.464,86.694Zm-4.576,2.12a11.484,11.484,0,0,0-3.795,1.451,14.236,14.236,0,0,0-3.683,3.237,24.465,24.465,0,0,0-3.125,4.687,29.858,29.858,0,0,0-2.232,5.8,30.441,30.441,0,0,0,8.928-6.585A13.536,13.536,0,0,0,348.888,88.815Z" transform="translate(-262.397 -64.709)"/>
        <path id="Path_61" data-name="Path 61" class="cls-1" d="M355.767,90.747a14.228,14.228,0,0,1,.112-2.232,4.262,4.262,0,0,1,.67-1.786A3.887,3.887,0,0,1,358,85.5a5.372,5.372,0,0,1,2.455-.446,15.248,15.248,0,0,1,2.12.223,2.379,2.379,0,0,1,1.674.781c-.223.781-.335,1.451-.446,2.009a9.826,9.826,0,0,0-.223,1.9c-.112.67-.112,1.562-.223,2.455,0,1-.111,2.232-.111,3.683-.112,3.013-.223,5.8-.446,8.147a40.2,40.2,0,0,1-1.339,7.143c0,.223.112.223.223.223a12.736,12.736,0,0,0,2.232-2.12c.781-.893,1.786-2.009,2.678-3.125s1.9-2.455,2.79-3.794,1.785-2.678,2.567-3.906c1.116-1.9,2.232-4.241,3.571-7.031a53.933,53.933,0,0,0,3.236-9.04c.223,0,.558.112,1,.112a4,4,0,0,1,1.228.446,3.491,3.491,0,0,1,1.116.558,6.606,6.606,0,0,1,.67.446,19.61,19.61,0,0,1-1.339,5.915,31.931,31.931,0,0,1-3.013,5.8,36.559,36.559,0,0,1-3.683,5.245,54.056,54.056,0,0,1-3.571,4.241,74.075,74.075,0,0,1-6.473,6.7,47.528,47.528,0,0,1-7.7,5.692,7.083,7.083,0,0,1-2.79-1.786,3.4,3.4,0,0,1-1-2.344,5.549,5.549,0,0,1,.335-1.786c.223-.67.558-1.562.893-2.678s.558-2.455.893-4.129a34.494,34.494,0,0,0,.335-6.25c0-1.451,0-2.9-.112-4.464A24.646,24.646,0,0,0,355.767,90.747Z" transform="translate(-259.566 -64.744)"/>
        <path id="Path_62" data-name="Path 62" class="cls-1" d="M402.564,86.694a25.223,25.223,0,0,1-1.451,7.143,16.5,16.5,0,0,1-3.46,5.245,23.126,23.126,0,0,1-5.469,4.018,59.08,59.08,0,0,1-7.477,3.46v1.786a9.61,9.61,0,0,0,.111,1.786,8.386,8.386,0,0,0,.446,1.786,4.015,4.015,0,0,0,.893,1.339,2.419,2.419,0,0,0,1.562.558,8.27,8.27,0,0,0,3.571-.781,26.592,26.592,0,0,0,3.348-2.009,31.785,31.785,0,0,0,2.9-2.567c.893-.893,1.674-1.786,2.455-2.567l1.116,1.116a34.118,34.118,0,0,1-6.584,6.7,17.493,17.493,0,0,1-6.808,3.348,11.091,11.091,0,0,1-7.254-3.348,10.126,10.126,0,0,1-2.567-6.808,19.788,19.788,0,0,1,.781-5.58,32.582,32.582,0,0,1,2.12-5.468,29.644,29.644,0,0,1,3.236-5.022,34.652,34.652,0,0,1,3.906-4.129A23.753,23.753,0,0,1,392.3,83.9a10.8,10.8,0,0,1,4.464-1C398.881,83.123,400.778,84.351,402.564,86.694Zm-4.576,2.12a11.485,11.485,0,0,0-3.795,1.451,14.24,14.24,0,0,0-3.683,3.237,24.466,24.466,0,0,0-3.125,4.687,29.86,29.86,0,0,0-2.232,5.8,30.439,30.439,0,0,0,8.928-6.585A13.536,13.536,0,0,0,397.988,88.815Z" transform="translate(-256.7 -64.709)"/>
        <path id="Path_63" data-name="Path 63" class="cls-1" d="M414.176,82a6.854,6.854,0,0,1,3.236,2.344,11.921,11.921,0,0,1,2.232,4.018,27.026,27.026,0,0,1-2.232,4.352c-1,1.674-2.009,3.46-3.125,5.245-1,1.786-2.009,3.46-2.79,5.022a13.194,13.194,0,0,0-1.451,3.906q1-1.172,2.344-2.678c.893-1,1.674-2.009,2.567-3.013.781-1,1.562-1.9,2.344-2.79.67-.781,1.228-1.451,1.674-1.9.893-.893,1.9-1.9,3.013-3.125a26.236,26.236,0,0,1,3.683-3.348,30.287,30.287,0,0,1,3.906-2.678,6.948,6.948,0,0,1,3.571-1.116,4.462,4.462,0,0,1,2.9,1.116,9.687,9.687,0,0,1,1.9,2.455c0,.112-.223.223-.558.335a4.615,4.615,0,0,0-1.451,1.339,19.612,19.612,0,0,0-2.121,3.348,43.671,43.671,0,0,0-2.232,4.576,46.087,46.087,0,0,0-1.9,5.022,18.707,18.707,0,0,0-.781,4.576c0,1.116.111,1.786.446,2.12a1.524,1.524,0,0,0,1.228.446,4.381,4.381,0,0,0,1.562-.335,4.056,4.056,0,0,1,1.228-.335,1.113,1.113,0,0,1,.446.558,2.841,2.841,0,0,1,.223.781,4.955,4.955,0,0,1-1.228.893c-.446.335-1,.558-1.562.893-.558.223-1.116.446-1.562.67a3.318,3.318,0,0,1-1.339.223,8.871,8.871,0,0,1-3.237-.558,4.36,4.36,0,0,1-1.9-1.562,6.811,6.811,0,0,1-1-2.232,11.329,11.329,0,0,1-.223-2.79,10.237,10.237,0,0,1,.111-1.786,11.65,11.65,0,0,1,.558-2.344c.223-.893.67-2.009,1.116-3.236s1.116-2.79,1.9-4.576c-.112,0-.67.335-1.786.893a15.678,15.678,0,0,0-3.571,2.9c-2.12,2.009-4.018,4.018-5.692,5.915-1.674,2.009-3.348,4.129-5.134,6.585-1,1.339-1.9,2.567-2.567,3.571a7.428,7.428,0,0,1-1.9,1.9,5.8,5.8,0,0,1-2.12-2.232,15.913,15.913,0,0,1-1-3.013,19.853,19.853,0,0,1,.335-3.236,39.675,39.675,0,0,1,1-4.353c.446-1.562.893-3.236,1.562-5.022s1.339-3.46,2.121-5.245a63.789,63.789,0,0,1,4.687-9.263A19.746,19.746,0,0,1,414.176,82Z" transform="translate(-253.916 -64.813)"/>
        <path id="Path_64" data-name="Path 64" class="cls-1" d="M453.392,121.35a14.535,14.535,0,0,1-4.464-1.9,3.076,3.076,0,0,1-1.228-2.344,14.67,14.67,0,0,1,.558-3.013c.446-1.339,1-2.79,1.786-4.576s1.674-3.683,2.79-5.915,2.344-4.464,3.683-6.919H451.16c.223-.67,1-1.228,2.232-1.786a28.405,28.405,0,0,1,4.911-1.228c1.786-2.9,3.571-5.692,5.58-8.37s4.018-5.022,6.027-7.254a58.05,58.05,0,0,1,6.026-5.8,34.115,34.115,0,0,1,5.8-4.018c0-.335.112-.558.112-.781V67a8.8,8.8,0,0,1,2.567.446c1,.335,2.12.67,3.125,1.116A29.9,29.9,0,0,1,490.22,69.9a3.682,3.682,0,0,1,1.339,1.116,55.807,55.807,0,0,0-4.353,11.607,144.275,144.275,0,0,0-3.571,18.526c-.223,1.786-.447,3.794-.558,6.138-.112,2.232-.223,4.8-.223,7.589v3.013c0,1,0,2.12.112,3.236a.39.39,0,0,0-.223.112h-.558a7.583,7.583,0,0,1-2.121-.335c-.781-.223-1.674-.446-2.455-.67a8.44,8.44,0,0,1-2.009-1,2.723,2.723,0,0,1-1-.893c0-.558-.112-1.116-.112-1.674v-1.786c0-2.678.112-5.468.335-8.259s.558-5.692,1-8.7a4.244,4.244,0,0,0-2.455-.67h-11.83c-1.116,2.009-2.12,3.906-3.013,5.915s-1.786,3.906-2.455,5.915a45.194,45.194,0,0,0-1.786,6.361A38.011,38.011,0,0,0,453.392,121.35Zm25.892-40.288c.223-.67.335-1.451.67-2.567.223-1.116.446-2.232.67-3.46a13.493,13.493,0,0,0-3.683,2.232,45.9,45.9,0,0,0-4.241,4.018c-1.451,1.562-2.9,3.348-4.464,5.357q-2.176,3.013-4.353,6.361c3.794-.335,8.035-.558,12.834-.558.335-1.9.781-3.794,1.228-5.58A48.8,48.8,0,0,1,479.283,81.062Z" transform="translate(-248.602 -66.554)"/>
        <path id="Path_65" data-name="Path 65" class="cls-1" d="M496.376,82a6.853,6.853,0,0,1,3.236,2.344,11.922,11.922,0,0,1,2.232,4.018,27.029,27.029,0,0,1-2.232,4.352c-1,1.674-2.009,3.46-3.125,5.245-1,1.786-2.009,3.46-2.79,5.022a13.183,13.183,0,0,0-1.451,3.906q1-1.172,2.344-2.678c.893-1,1.674-2.009,2.567-3.013.781-1,1.562-1.9,2.344-2.79.67-.781,1.228-1.451,1.674-1.9.893-.893,1.9-1.9,3.013-3.125a26.235,26.235,0,0,1,3.683-3.348,30.288,30.288,0,0,1,3.906-2.678,6.946,6.946,0,0,1,3.571-1.116,4.462,4.462,0,0,1,2.9,1.116,9.69,9.69,0,0,1,1.9,2.455c0,.112-.223.223-.558.335a4.614,4.614,0,0,0-1.451,1.339,19.6,19.6,0,0,0-2.12,3.348,43.61,43.61,0,0,0-2.232,4.576,46.045,46.045,0,0,0-1.9,5.022,18.711,18.711,0,0,0-.781,4.576c0,1.116.112,1.786.446,2.12a1.524,1.524,0,0,0,1.228.446,4.38,4.38,0,0,0,1.562-.335,4.057,4.057,0,0,1,1.228-.335,1.115,1.115,0,0,1,.446.558,2.845,2.845,0,0,1,.223.781,4.956,4.956,0,0,1-1.228.893c-.446.335-1,.558-1.562.893-.558.223-1.116.446-1.563.67a3.317,3.317,0,0,1-1.339.223,8.87,8.87,0,0,1-3.237-.558,4.361,4.361,0,0,1-1.9-1.562,6.815,6.815,0,0,1-1-2.232,11.325,11.325,0,0,1-.223-2.79,10.2,10.2,0,0,1,.112-1.786,11.643,11.643,0,0,1,.558-2.344c.223-.893.67-2.009,1.116-3.236s1.116-2.79,1.9-4.576c-.112,0-.67.335-1.786.893a15.684,15.684,0,0,0-3.571,2.9c-2.121,2.009-4.018,4.018-5.692,5.915-1.674,2.009-3.348,4.129-5.134,6.585-1,1.339-1.9,2.567-2.567,3.571a7.424,7.424,0,0,1-1.9,1.9,5.8,5.8,0,0,1-2.12-2.232,15.924,15.924,0,0,1-1-3.013,19.844,19.844,0,0,1,.335-3.236,39.686,39.686,0,0,1,1-4.353c.446-1.562.893-3.236,1.563-5.022s1.339-3.46,2.12-5.245a63.782,63.782,0,0,1,4.687-9.263A19.751,19.751,0,0,1,496.376,82Z" transform="translate(-244.379 -64.813)"/>
        <path id="Path_66" data-name="Path 66" class="cls-1" d="M538.783,87.248a8.754,8.754,0,0,1,1.562.223,9.838,9.838,0,0,1,1.674.558,11.8,11.8,0,0,1,1.227.781,1.155,1.155,0,0,1,.558.781c-.893,1.9-1.674,3.794-2.455,5.692a39.914,39.914,0,0,0-1.9,5.469,31.523,31.523,0,0,0-1.228,4.91,18.18,18.18,0,0,0-.447,3.906,8.8,8.8,0,0,0,.447,3.125,2.772,2.772,0,0,0,1.339,1.786,7.569,7.569,0,0,1-2.12.893,9.021,9.021,0,0,1-2.232.335c-2.455,0-3.571-1.674-3.571-4.91,0-2.567.893-6.027,2.567-10.491a36.249,36.249,0,0,1-3.125,5.8,41.2,41.2,0,0,1-3.571,4.8,20.012,20.012,0,0,1-3.683,3.348,8.892,8.892,0,0,1-3.348,1.562,4.716,4.716,0,0,1-4.018-2.232,10.187,10.187,0,0,1-1.563-5.8,23.732,23.732,0,0,1,1.563-7.924,36.337,36.337,0,0,1,4.129-7.7,27.98,27.98,0,0,1,5.469-5.915,9.459,9.459,0,0,1,5.692-2.344,10.048,10.048,0,0,1,1.563.781,9.644,9.644,0,0,1,1.562,1.451l1.339,1.674a2.177,2.177,0,0,1,.558,1.451,11.112,11.112,0,0,0-5.469,2.567,26.141,26.141,0,0,0-5.134,5.357,30.484,30.484,0,0,0-3.794,6.7,16.784,16.784,0,0,0-1.451,6.585,1.458,1.458,0,0,0,.893,1.562c1.339-.223,2.79-1.339,4.464-3.348a55.687,55.687,0,0,0,6.138-9.04c.446-.781.893-1.674,1.451-2.678s1.116-2.009,1.674-3.125,1.116-2.12,1.674-3.236C537.778,89.257,538.336,88.253,538.783,87.248Z" transform="translate(-240.805 -64.593)"/>
        <path id="Path_67" data-name="Path 67" class="cls-1" d="M568.068,104c-1,3.236-2.009,6.25-3.125,8.928a76.547,76.547,0,0,1-3.237,7.366,48.9,48.9,0,0,1-3.795,6.25,40.579,40.579,0,0,1-4.464,5.357,23.245,23.245,0,0,1-6.361,4.911,14.415,14.415,0,0,1-6.584,1.674,17.035,17.035,0,0,1-3.348-.335,14.6,14.6,0,0,1-3.125-1,14.02,14.02,0,0,1-2.567-1.451,4.642,4.642,0,0,1-1.562-1.786,1.9,1.9,0,0,1,.893-1.451c.558.446,1,.893,1.339,1.116l1,.67a1.886,1.886,0,0,0,1.116.335c.446,0,.781.112,1.339.112a14.527,14.527,0,0,0,7.477-2.232,26.023,26.023,0,0,0,6.919-6.361,51.917,51.917,0,0,0,5.915-9.933,77.684,77.684,0,0,0,4.576-13.058c-.558.893-1.339,2.009-2.12,3.236-.893,1.339-1.786,2.567-2.79,3.794a32.033,32.033,0,0,1-3.237,3.46,11.915,11.915,0,0,1-3.125,2.12,8.336,8.336,0,0,1-2.232-.335,8.056,8.056,0,0,1-2.232-1,8.157,8.157,0,0,1-1.785-1.562,5.554,5.554,0,0,1-1.116-2.12,24.415,24.415,0,0,1,.111-3.125,24.888,24.888,0,0,1,.447-2.567c.446-1.674,1-3.571,1.786-5.8a52.508,52.508,0,0,1,2.79-6.361,41.969,41.969,0,0,1,3.46-5.8,16.357,16.357,0,0,1,4.018-4.241,6.4,6.4,0,0,1,1.339.112l1.674.335,1.674.67a4.245,4.245,0,0,1,1.451,1,36.044,36.044,0,0,0-3.236,4.464,75.734,75.734,0,0,0-5.469,10.937c-.223.446-.447,1.228-.781,2.12a22.074,22.074,0,0,0-.893,2.9,29.908,29.908,0,0,0-.781,3.013,11.588,11.588,0,0,0-.335,2.344c0,.335,0,.67.111.781a1.547,1.547,0,0,0,.335.446,7.206,7.206,0,0,0,3.237-2.009,29.03,29.03,0,0,0,4.576-5.58,54.919,54.919,0,0,0,2.9-4.8c.893-1.562,1.785-3.125,2.678-4.8.893-1.562,1.786-3.236,2.679-4.91s1.9-3.46,3.013-5.245a12.432,12.432,0,0,1,1.9.223c.67.112,1.339.335,1.9.446.67.223,1.116.446,1.674.67a3.923,3.923,0,0,1,1,.781c-1.339,2.9-2.679,5.8-3.906,8.593C570.077,98.2,568.961,101.1,568.068,104Z" transform="translate(-239.065 -64.72)"/>
        <path id="Path_68" data-name="Path 68" class="cls-1" d="M592.483,87.248a8.749,8.749,0,0,1,1.562.223,9.818,9.818,0,0,1,1.674.558,11.74,11.74,0,0,1,1.228.781,1.155,1.155,0,0,1,.558.781c-.893,1.9-1.674,3.794-2.455,5.692a39.93,39.93,0,0,0-1.9,5.469,31.523,31.523,0,0,0-1.228,4.91,18.173,18.173,0,0,0-.446,3.906,8.8,8.8,0,0,0,.446,3.125,2.772,2.772,0,0,0,1.339,1.786,7.564,7.564,0,0,1-2.12.893,9.019,9.019,0,0,1-2.232.335c-2.455,0-3.571-1.674-3.571-4.91,0-2.567.893-6.027,2.567-10.491a36.2,36.2,0,0,1-3.125,5.8,41.2,41.2,0,0,1-3.571,4.8,20,20,0,0,1-3.683,3.348,8.892,8.892,0,0,1-3.348,1.562,4.716,4.716,0,0,1-4.017-2.232,10.186,10.186,0,0,1-1.563-5.8,23.729,23.729,0,0,1,1.563-7.924,36.34,36.34,0,0,1,4.129-7.7,27.985,27.985,0,0,1,5.469-5.915,9.459,9.459,0,0,1,5.692-2.344,10.048,10.048,0,0,1,1.563.781,9.634,9.634,0,0,1,1.562,1.451l1.339,1.674a2.176,2.176,0,0,1,.558,1.451,11.111,11.111,0,0,0-5.469,2.567,26.131,26.131,0,0,0-5.133,5.357,30.473,30.473,0,0,0-3.795,6.7,16.781,16.781,0,0,0-1.451,6.585,1.458,1.458,0,0,0,.893,1.562c1.339-.223,2.79-1.339,4.464-3.348a55.683,55.683,0,0,0,6.138-9.04c.447-.781.893-1.674,1.451-2.678s1.116-2.009,1.674-3.125,1.116-2.12,1.674-3.236C591.479,89.257,592.036,88.253,592.483,87.248Z" transform="translate(-234.575 -64.593)"/>
      </g>
    </g>
  </g>
</svg>
