<svg xmlns="http://www.w3.org/2000/svg" viewBox="0 0 122.104 28.197">
  <defs>
    <style>
      .cls-1 {
        fill: #fff;
      }
    </style>
  </defs>
  <g id="Social_Icons" data-name="Social Icons" transform="translate(-50 -689.803)">
    <path id="Path_3" data-name="Path 3" class="cls-1" d="M28.485,17.361a13.939,13.939,0,0,1-2.51,5.622,13.937,13.937,0,0,1-3.593,3.439,14.856,14.856,0,0,1-3.473,1.7c-.98.172-.98-.636-.98-.636l.017-4.092a3.265,3.265,0,0,0-.98-2.6,8.875,8.875,0,0,0,4.47-1.6,6.435,6.435,0,0,0,2.1-4.848A5.708,5.708,0,0,0,22.072,9.8a5.458,5.458,0,0,0-.155-3.817c-1.6-.224-3.972,1.479-3.972,1.479a13.965,13.965,0,0,0-7.238,0c-2.7-1.84-3.972-1.479-3.972-1.479A5.452,5.452,0,0,0,6.6,9.813a5.548,5.548,0,0,0-1.461,3.318A10.145,10.145,0,0,0,5.514,16.6a5.422,5.422,0,0,0,2.2,2.957,9.471,9.471,0,0,0,3.972,1.255,3.207,3.207,0,0,0-.911,1.926,4.344,4.344,0,0,1-1.2.344,2.9,2.9,0,0,1-1.685-.241,2.14,2.14,0,0,1-.7-.5,4.1,4.1,0,0,1-.6-.774,3.871,3.871,0,0,0-.55-.7,3.316,3.316,0,0,0-.842-.6A2.144,2.144,0,0,0,4.1,20.06c-.481.069-.5.258-.309.5a1.588,1.588,0,0,0,.464.378,2.986,2.986,0,0,1,.963.946,6.288,6.288,0,0,1,.636,1.2,3.169,3.169,0,0,0,1.6,1.685,5.414,5.414,0,0,0,3.25.206l.017,2.51c-.086.86-.98.636-.98.636a14.8,14.8,0,0,1-4.436-2.407,14.67,14.67,0,0,1-4.591-6.4,14.493,14.493,0,0,1-.791-6.172A14.417,14.417,0,0,1,7.234,1.818a14.674,14.674,0,0,1,6.413-1.84A14.429,14.429,0,0,1,26.095,6a14.352,14.352,0,0,1,2.235,4.745A15.184,15.184,0,0,1,28.485,17.361Z" transform="translate(50.13 689.85)"/>
    <path id="Path_4" data-name="Path 4" class="cls-1" d="M303.026,44.5H308.3V31.28h3.675l.4-4.425H308.3V24.326c0-1.047.217-1.462,1.225-1.462h2.865V18.3h-3.655c-3.931,0-5.69,1.739-5.69,5.038v3.536H300.3v4.485h2.746V44.5Z" transform="translate(-201.145 673.503)"/>
    <g id="Group_3" data-name="Group 3" transform="translate(132.122 692.592)">
      <path id="Path_5" data-name="Path 5" class="cls-1" d="M514.819,54.456a6.66,6.66,0,0,0,2.8-1.252,6.913,6.913,0,0,0,1.752-1.953,7.348,7.348,0,0,0,1.1-3.955,6.5,6.5,0,0,0-.976-3.63,5.465,5.465,0,0,0-2.879-2.178,6.582,6.582,0,0,0,1.9-1.4,5.466,5.466,0,0,0,1.151-3.655,6.163,6.163,0,0,0-1.151-3.78c-1.252-1.727-3.4-2.6-6.433-2.653H500.1V54.782h11.189A17.275,17.275,0,0,0,514.819,54.456ZM505.081,34.28h5.407a9.686,9.686,0,0,1,2.929.375,2.194,2.194,0,0,1,1.327,2.278,2.31,2.31,0,0,1-1,2.178,5.1,5.1,0,0,1-2.628.626h-6.033Zm0,16.2V43.868h6.108a5.883,5.883,0,0,1,2.478.426,2.662,2.662,0,0,1,1.577,2.653,3.16,3.16,0,0,1-1.627,3.1,5.7,5.7,0,0,1-2.5.426h-6.033Z" transform="translate(-500.1 -30)"/>
      <g id="Group_2" data-name="Group 2" transform="translate(21.802 1.402)">
        <path id="Path_6" data-name="Path 6" class="cls-1" d="M589.977,71.072a10.049,10.049,0,0,0,6.458,2.253,8.975,8.975,0,0,0,6.909-2.678,6.022,6.022,0,0,0,1.777-3.3h-4.906a4.269,4.269,0,0,1-.976,1.252,4.111,4.111,0,0,1-2.654.851,4.828,4.828,0,0,1-2.653-.7A4.429,4.429,0,0,1,592,64.864h13.367a23.75,23.75,0,0,0-.15-3.63,8.977,8.977,0,0,0-1.452-3.78,7.207,7.207,0,0,0-3.179-2.7,10.33,10.33,0,0,0-4.305-.851,8.826,8.826,0,0,0-6.558,2.553c-1.677,1.7-2.528,4.13-2.528,7.309C587.174,67.117,588.1,69.57,589.977,71.072Zm3.429-12.191a3.779,3.779,0,0,1,2.854-1.051,4.291,4.291,0,0,1,2.854.976,3.905,3.905,0,0,1,1.277,2.9H592.13A4.955,4.955,0,0,1,593.406,58.881Z" transform="translate(-587.198 -49.319)"/>
        <rect id="Rectangle_4" data-name="Rectangle 4" class="cls-1" width="10.789" height="2.503" transform="translate(3.355)"/>
      </g>
    </g>
  </g>
</svg>
