<svg xmlns="http://www.w3.org/2000/svg" viewBox="0 0 329.79 200"><defs><style>.cls-1-us-flag{fill:#ce1126;}.cls-2-us-flag{fill:#fff;}.cls-3-us-flag{fill:#003893;}</style></defs><title>Recurso 5</title><g id="Capa_2" data-name="Capa 2"><g id="iCONS"><g id="US"><g id="Rectangles"><rect class="cls-1-us-flag" y="184.62" width="329.79" height="15.38"/><rect class="cls-1-us-flag" y="153.85" width="329.79" height="15.38"/><rect class="cls-1-us-flag" y="123.08" width="329.79" height="15.38"/><rect class="cls-1-us-flag" y="92.31" width="329.79" height="15.38"/><rect class="cls-1-us-flag" y="61.54" width="329.79" height="15.38"/><rect class="cls-1-us-flag" y="30.77" width="329.79" height="15.38"/><rect class="cls-1-us-flag" width="329.79" height="15.38"/><rect class="cls-2-us-flag" y="169.23" width="329.79" height="15.38"/><rect class="cls-2-us-flag" y="138.46" width="329.79" height="15.38"/><rect class="cls-2-us-flag" y="107.69" width="329.79" height="15.38"/><rect class="cls-2-us-flag" y="76.92" width="329.79" height="15.38"/><rect class="cls-2-us-flag" y="46.15" width="329.79" height="15.38"/><rect class="cls-2-us-flag" y="15.38" width="329.79" height="15.38"/></g><g id="Stars_Unity" data-name="Stars Unity"><rect class="cls-3-us-flag" width="135" height="107.69"/><g id="Stars"><polygon class="cls-2-us-flag" points="12 3.57 13.32 7.84 17.59 7.84 14.14 10.47 15.46 14.74 12 12.1 8.55 14.74 9.87 10.47 6.42 7.84 10.69 7.84 12 3.57"/><polygon class="cls-2-us-flag" points="23.18 14.74 24.5 19.01 28.76 19.01 25.31 21.65 26.63 25.91 23.18 23.28 19.72 25.91 21.04 21.65 17.59 19.01 21.86 19.01 23.18 14.74"/><polygon class="cls-2-us-flag" points="12 25.91 13.32 30.18 17.59 30.18 14.14 32.82 15.46 37.09 12 34.45 8.55 37.09 9.87 32.82 6.42 30.18 10.69 30.18 12 25.91"/><polygon class="cls-2-us-flag" points="23.18 37.09 24.5 41.35 28.76 41.35 25.31 43.99 26.63 48.26 23.18 45.62 19.72 48.26 21.04 43.99 17.59 41.35 21.86 41.35 23.18 37.09"/><polygon class="cls-2-us-flag" points="12 48.26 13.32 52.53 17.59 52.53 14.14 55.16 15.46 59.43 12 56.8 8.55 59.43 9.87 55.16 6.42 52.53 10.69 52.53 12 48.26"/><polygon class="cls-2-us-flag" points="12 70.61 13.32 74.87 17.59 74.87 14.14 77.51 15.46 81.78 12 79.14 8.55 81.78 9.87 77.51 6.42 74.87 10.69 74.87 12 70.61"/><polygon class="cls-2-us-flag" points="12 92.95 13.32 97.22 17.59 97.22 14.14 99.86 15.46 104.12 12 101.49 8.55 104.12 9.87 99.86 6.42 97.22 10.69 97.22 12 92.95"/><polygon class="cls-2-us-flag" points="34.35 92.95 35.67 97.22 39.94 97.22 36.48 99.86 37.8 104.12 34.35 101.49 30.9 104.12 32.22 99.86 28.76 97.22 33.03 97.22 34.35 92.95"/><polygon class="cls-2-us-flag" points="56.7 92.95 58.01 97.22 62.28 97.22 58.83 99.86 60.15 104.12 56.7 101.49 53.24 104.12 54.56 99.86 51.11 97.22 55.38 97.22 56.7 92.95"/><polygon class="cls-2-us-flag" points="79.04 92.95 80.36 97.22 84.63 97.22 81.17 99.86 82.49 104.12 79.04 101.49 75.59 104.12 76.91 99.86 73.45 97.22 77.72 97.22 79.04 92.95"/><polygon class="cls-2-us-flag" points="101.39 92.95 102.7 97.22 106.97 97.22 103.52 99.86 104.84 104.12 101.39 101.49 97.93 104.12 99.25 99.86 95.8 97.22 100.07 97.22 101.39 92.95"/><polygon class="cls-2-us-flag" points="123.73 92.95 125.05 97.22 129.32 97.22 125.87 99.86 127.18 104.12 123.73 101.49 120.28 104.12 121.6 99.86 118.15 97.22 122.41 97.22 123.73 92.95"/><polygon class="cls-2-us-flag" points="34.35 70.61 35.67 74.87 39.94 74.87 36.48 77.51 37.8 81.78 34.35 79.14 30.9 81.78 32.22 77.51 28.76 74.87 33.03 74.87 34.35 70.61"/><polygon class="cls-2-us-flag" points="56.7 70.61 58.01 74.87 62.28 74.87 58.83 77.51 60.15 81.78 56.7 79.14 53.24 81.78 54.56 77.51 51.11 74.87 55.38 74.87 56.7 70.61"/><polygon class="cls-2-us-flag" points="79.04 70.61 80.36 74.87 84.63 74.87 81.17 77.51 82.49 81.78 79.04 79.14 75.59 81.78 76.91 77.51 73.45 74.87 77.72 74.87 79.04 70.61"/><polygon class="cls-2-us-flag" points="101.39 70.61 102.7 74.87 106.97 74.87 103.52 77.51 104.84 81.78 101.39 79.14 97.93 81.78 99.25 77.51 95.8 74.87 100.07 74.87 101.39 70.61"/><polygon class="cls-2-us-flag" points="123.73 70.61 125.05 74.87 129.32 74.87 125.87 77.51 127.18 81.78 123.73 79.14 120.28 81.78 121.6 77.51 118.15 74.87 122.41 74.87 123.73 70.61"/><polygon class="cls-2-us-flag" points="23.18 59.43 24.5 63.7 28.76 63.7 25.31 66.34 26.63 70.61 23.18 67.97 19.72 70.61 21.04 66.34 17.59 63.7 21.86 63.7 23.18 59.43"/><polygon class="cls-2-us-flag" points="23.18 81.78 24.5 86.05 28.76 86.05 25.31 88.68 26.63 92.95 23.18 90.31 19.72 92.95 21.04 88.68 17.59 86.05 21.86 86.05 23.18 81.78"/><polygon class="cls-2-us-flag" points="45.52 81.78 46.84 86.05 51.11 86.05 47.66 88.68 48.98 92.95 45.52 90.31 42.07 92.95 43.39 88.68 39.94 86.05 44.2 86.05 45.52 81.78"/><polygon class="cls-2-us-flag" points="67.87 81.78 69.19 86.05 73.45 86.05 70 88.68 71.32 92.95 67.87 90.31 64.42 92.95 65.73 88.68 62.28 86.05 66.55 86.05 67.87 81.78"/><polygon class="cls-2-us-flag" points="90.21 81.78 91.53 86.05 95.8 86.05 92.35 88.68 93.67 92.95 90.21 90.31 86.76 92.95 88.08 88.68 84.63 86.05 88.89 86.05 90.21 81.78"/><polygon class="cls-2-us-flag" points="112.56 81.78 113.88 86.05 118.15 86.05 114.69 88.68 116.01 92.95 112.56 90.31 109.11 92.95 110.42 88.68 106.97 86.05 111.24 86.05 112.56 81.78"/><polygon class="cls-2-us-flag" points="45.52 59.43 46.84 63.7 51.11 63.7 47.66 66.34 48.98 70.61 45.52 67.97 42.07 70.61 43.39 66.34 39.94 63.7 44.2 63.7 45.52 59.43"/><polygon class="cls-2-us-flag" points="67.87 59.43 69.19 63.7 73.45 63.7 70 66.34 71.32 70.61 67.87 67.97 64.42 70.61 65.73 66.34 62.28 63.7 66.55 63.7 67.87 59.43"/><polygon class="cls-2-us-flag" points="90.21 59.43 91.53 63.7 95.8 63.7 92.35 66.34 93.67 70.61 90.21 67.97 86.76 70.61 88.08 66.34 84.63 63.7 88.89 63.7 90.21 59.43"/><polygon class="cls-2-us-flag" points="112.56 59.43 113.88 63.7 118.15 63.7 114.69 66.34 116.01 70.61 112.56 67.97 109.11 70.61 110.42 66.34 106.97 63.7 111.24 63.7 112.56 59.43"/><polygon class="cls-2-us-flag" points="34.35 48.26 35.67 52.53 39.94 52.53 36.48 55.16 37.8 59.43 34.35 56.8 30.9 59.43 32.22 55.16 28.76 52.53 33.03 52.53 34.35 48.26"/><polygon class="cls-2-us-flag" points="56.7 48.26 58.01 52.53 62.28 52.53 58.83 55.16 60.15 59.43 56.7 56.8 53.24 59.43 54.56 55.16 51.11 52.53 55.38 52.53 56.7 48.26"/><polygon class="cls-2-us-flag" points="79.04 48.26 80.36 52.53 84.63 52.53 81.17 55.16 82.49 59.43 79.04 56.8 75.59 59.43 76.91 55.16 73.45 52.53 77.72 52.53 79.04 48.26"/><polygon class="cls-2-us-flag" points="101.39 48.26 102.7 52.53 106.97 52.53 103.52 55.16 104.84 59.43 101.39 56.8 97.93 59.43 99.25 55.16 95.8 52.53 100.07 52.53 101.39 48.26"/><polygon class="cls-2-us-flag" points="123.73 48.26 125.05 52.53 129.32 52.53 125.87 55.16 127.18 59.43 123.73 56.8 120.28 59.43 121.6 55.16 118.15 52.53 122.41 52.53 123.73 48.26"/><polygon class="cls-2-us-flag" points="45.52 37.09 46.84 41.35 51.11 41.35 47.66 43.99 48.98 48.26 45.52 45.62 42.07 48.26 43.39 43.99 39.94 41.35 44.2 41.35 45.52 37.09"/><polygon class="cls-2-us-flag" points="67.87 37.09 69.19 41.35 73.45 41.35 70 43.99 71.32 48.26 67.87 45.62 64.42 48.26 65.73 43.99 62.28 41.35 66.55 41.35 67.87 37.09"/><polygon class="cls-2-us-flag" points="90.21 37.09 91.53 41.35 95.8 41.35 92.35 43.99 93.67 48.26 90.21 45.62 86.76 48.26 88.08 43.99 84.63 41.35 88.89 41.35 90.21 37.09"/><polygon class="cls-2-us-flag" points="112.56 37.09 113.88 41.35 118.15 41.35 114.69 43.99 116.01 48.26 112.56 45.62 109.11 48.26 110.42 43.99 106.97 41.35 111.24 41.35 112.56 37.09"/><polygon class="cls-2-us-flag" points="34.35 25.91 35.67 30.18 39.94 30.18 36.48 32.82 37.8 37.09 34.35 34.45 30.9 37.09 32.22 32.82 28.76 30.18 33.03 30.18 34.35 25.91"/><polygon class="cls-2-us-flag" points="56.7 25.91 58.01 30.18 62.28 30.18 58.83 32.82 60.15 37.09 56.7 34.45 53.24 37.09 54.56 32.82 51.11 30.18 55.38 30.18 56.7 25.91"/><polygon class="cls-2-us-flag" points="79.04 25.91 80.36 30.18 84.63 30.18 81.17 32.82 82.49 37.09 79.04 34.45 75.59 37.09 76.91 32.82 73.45 30.18 77.72 30.18 79.04 25.91"/><polygon class="cls-2-us-flag" points="101.39 25.91 102.7 30.18 106.97 30.18 103.52 32.82 104.84 37.09 101.39 34.45 97.93 37.09 99.25 32.82 95.8 30.18 100.07 30.18 101.39 25.91"/><polygon class="cls-2-us-flag" points="123.73 25.91 125.05 30.18 129.32 30.18 125.87 32.82 127.18 37.09 123.73 34.45 120.28 37.09 121.6 32.82 118.15 30.18 122.41 30.18 123.73 25.91"/><polygon class="cls-2-us-flag" points="34.35 3.57 35.67 7.84 39.94 7.84 36.48 10.47 37.8 14.74 34.35 12.1 30.9 14.74 32.22 10.47 28.76 7.84 33.03 7.84 34.35 3.57"/><polygon class="cls-2-us-flag" points="45.52 14.74 46.84 19.01 51.11 19.01 47.66 21.65 48.98 25.91 45.52 23.28 42.07 25.91 43.39 21.65 39.94 19.01 44.2 19.01 45.52 14.74"/><polygon class="cls-2-us-flag" points="56.7 3.57 58.01 7.84 62.28 7.84 58.83 10.47 60.15 14.74 56.7 12.1 53.24 14.74 54.56 10.47 51.11 7.84 55.38 7.84 56.7 3.57"/><polygon class="cls-2-us-flag" points="67.87 14.74 69.19 19.01 73.45 19.01 70 21.65 71.32 25.91 67.87 23.28 64.42 25.91 65.73 21.65 62.28 19.01 66.55 19.01 67.87 14.74"/><polygon class="cls-2-us-flag" points="79.04 3.57 80.36 7.84 84.63 7.84 81.17 10.47 82.49 14.74 79.04 12.1 75.59 14.74 76.91 10.47 73.45 7.84 77.72 7.84 79.04 3.57"/><polygon class="cls-2-us-flag" points="90.21 14.74 91.53 19.01 95.8 19.01 92.35 21.65 93.67 25.91 90.21 23.28 86.76 25.91 88.08 21.65 84.63 19.01 88.89 19.01 90.21 14.74"/><polygon class="cls-2-us-flag" points="101.39 3.57 102.7 7.84 106.97 7.84 103.52 10.47 104.84 14.74 101.39 12.1 97.93 14.74 99.25 10.47 95.8 7.84 100.07 7.84 101.39 3.57"/><polygon class="cls-2-us-flag" points="112.56 14.74 113.88 19.01 118.15 19.01 114.69 21.65 116.01 25.91 112.56 23.28 109.11 25.91 110.42 21.65 106.97 19.01 111.24 19.01 112.56 14.74"/><polygon class="cls-2-us-flag" points="123.73 3.57 125.05 7.84 129.32 7.84 125.87 10.47 127.18 14.74 123.73 12.1 120.28 14.74 121.6 10.47 118.15 7.84 122.41 7.84 123.73 3.57"/></g></g></g></g></g></svg>